<svg xmlns="http://www.w3.org/2000/svg" xmlns:xlink="http://www.w3.org/1999/xlink" width="174" zoomAndPan="magnify" viewBox="0 0 130.5 65.249999" height="87" preserveAspectRatio="xMidYMid meet" version="1.0"><defs><g/></defs><g fill="#000000" fill-opacity="1"><g transform="translate(9.117857, 29.145542)"><g><path d="M 6.875 0 L 5.203125 0 L 5.203125 -9.65625 C 5.203125 -10.21875 5.207031 -10.664062 5.21875 -11 C 5.238281 -11.332031 5.257812 -11.679688 5.28125 -12.046875 C 5.070312 -11.835938 4.878906 -11.660156 4.703125 -11.515625 C 4.535156 -11.378906 4.328125 -11.203125 4.078125 -10.984375 L 2.609375 -9.78125 L 1.71875 -10.921875 L 5.453125 -13.828125 L 6.875 -13.828125 Z M 6.875 0 "/></g></g></g><g fill="#000000" fill-opacity="1"><g transform="translate(20.189307, 29.145542)"><g><path d="M 3.671875 -0.5625 C 3.671875 -0.289062 3.550781 -0.078125 3.3125 0.078125 C 3.101562 0.222656 2.863281 0.296875 2.59375 0.296875 C 2.320312 0.296875 2.082031 0.222656 1.875 0.078125 C 1.644531 -0.078125 1.53125 -0.289062 1.53125 -0.5625 C 1.53125 -0.800781 1.644531 -1.007812 1.875 -1.1875 C 2.09375 -1.3125 2.332031 -1.375 2.59375 -1.375 C 3.3125 -1.375 3.671875 -1.101562 3.671875 -0.5625 Z M 3.671875 -0.5625 "/></g></g></g><path fill="#000000" d="M 38.847656 27.253906 L 49.914062 27.253906 L 49.914062 28.710938 L 38.847656 28.710938 Z M 38.847656 27.253906 " fill-opacity="1" fill-rule="nonzero"/><g fill="#000000" fill-opacity="1"><g transform="translate(38.848905, 25.798215)"><g><path d="M 5.3125 -8.46875 C 6.71875 -8.46875 7.84375 -8.113281 8.6875 -7.40625 C 9.539062 -6.695312 9.96875 -5.695312 9.96875 -4.40625 C 9.96875 -2.976562 9.507812 -1.851562 8.59375 -1.03125 C 7.6875 -0.21875 6.421875 0.1875 4.796875 0.1875 C 4.078125 0.1875 3.40625 0.125 2.78125 0 C 2.164062 -0.125 1.644531 -0.3125 1.21875 -0.5625 L 1.21875 -2.171875 C 1.6875 -1.878906 2.25 -1.648438 2.90625 -1.484375 C 3.570312 -1.328125 4.207031 -1.25 4.8125 -1.25 C 5.832031 -1.25 6.65625 -1.488281 7.28125 -1.96875 C 7.90625 -2.457031 8.21875 -3.210938 8.21875 -4.234375 C 8.21875 -5.140625 7.941406 -5.832031 7.390625 -6.3125 C 6.835938 -6.800781 5.960938 -7.046875 4.765625 -7.046875 C 4.398438 -7.046875 3.984375 -7.007812 3.515625 -6.9375 C 3.054688 -6.875 2.6875 -6.8125 2.40625 -6.75 L 1.546875 -7.296875 L 2.0625 -13.8125 L 9 -13.8125 L 9 -12.265625 L 3.515625 -12.265625 L 3.1875 -8.265625 C 3.40625 -8.296875 3.703125 -8.335938 4.078125 -8.390625 C 4.453125 -8.441406 4.863281 -8.46875 5.3125 -8.46875 Z M 5.3125 -8.46875 "/></g></g></g><g fill="#000000" fill-opacity="1"><g transform="translate(38.848905, 49.084909)"><g><path d="M 1.0625 -5.90625 C 1.0625 -6.894531 1.148438 -7.867188 1.328125 -8.828125 C 1.503906 -9.785156 1.816406 -10.65625 2.265625 -11.4375 C 2.722656 -12.21875 3.363281 -12.835938 4.1875 -13.296875 C 5.019531 -13.765625 6.085938 -14 7.390625 -14 C 7.660156 -14 7.957031 -13.984375 8.28125 -13.953125 C 8.613281 -13.929688 8.882812 -13.890625 9.09375 -13.828125 L 9.09375 -12.375 C 8.863281 -12.457031 8.597656 -12.515625 8.296875 -12.546875 C 8.003906 -12.585938 7.710938 -12.609375 7.421875 -12.609375 C 6.535156 -12.609375 5.796875 -12.457031 5.203125 -12.15625 C 4.609375 -11.863281 4.140625 -11.457031 3.796875 -10.9375 C 3.453125 -10.425781 3.203125 -9.832031 3.046875 -9.15625 C 2.898438 -8.488281 2.804688 -7.773438 2.765625 -7.015625 L 2.875 -7.015625 C 3.175781 -7.472656 3.585938 -7.859375 4.109375 -8.171875 C 4.640625 -8.484375 5.320312 -8.640625 6.15625 -8.640625 C 7.351562 -8.640625 8.316406 -8.273438 9.046875 -7.546875 C 9.785156 -6.816406 10.15625 -5.785156 10.15625 -4.453125 C 10.15625 -3.003906 9.757812 -1.867188 8.96875 -1.046875 C 8.175781 -0.222656 7.109375 0.1875 5.765625 0.1875 C 4.890625 0.1875 4.097656 -0.03125 3.390625 -0.46875 C 2.679688 -0.90625 2.113281 -1.570312 1.6875 -2.46875 C 1.269531 -3.375 1.0625 -4.519531 1.0625 -5.90625 Z M 5.75 -1.234375 C 6.5625 -1.234375 7.21875 -1.492188 7.71875 -2.015625 C 8.21875 -2.546875 8.46875 -3.359375 8.46875 -4.453125 C 8.46875 -5.328125 8.242188 -6.019531 7.796875 -6.53125 C 7.359375 -7.050781 6.691406 -7.3125 5.796875 -7.3125 C 5.191406 -7.3125 4.664062 -7.1875 4.21875 -6.9375 C 3.769531 -6.6875 3.414062 -6.363281 3.15625 -5.96875 C 2.90625 -5.570312 2.78125 -5.175781 2.78125 -4.78125 C 2.78125 -4.226562 2.890625 -3.675781 3.109375 -3.125 C 3.328125 -2.570312 3.65625 -2.117188 4.09375 -1.765625 C 4.539062 -1.410156 5.09375 -1.234375 5.75 -1.234375 Z M 5.75 -1.234375 "/></g></g></g><path fill="#000000" d="M 79.726562 27.019531 L 90.800781 27.019531 L 90.800781 28.457031 L 79.726562 28.457031 Z M 79.726562 27.019531 " fill-opacity="1" fill-rule="nonzero"/><g fill="#000000" fill-opacity="1"><g transform="translate(79.726462, 25.583)"><g><path d="M 6.875 0 L 5.203125 0 L 5.203125 -9.65625 C 5.203125 -10.21875 5.207031 -10.664062 5.21875 -11 C 5.238281 -11.332031 5.257812 -11.679688 5.28125 -12.046875 C 5.070312 -11.835938 4.878906 -11.660156 4.703125 -11.515625 C 4.535156 -11.378906 4.328125 -11.203125 4.078125 -10.984375 L 2.609375 -9.78125 L 1.71875 -10.921875 L 5.453125 -13.828125 L 6.875 -13.828125 Z M 6.875 0 "/></g></g></g><g fill="#000000" fill-opacity="1"><g transform="translate(79.726462, 49.301482)"><g><path d="M 9.546875 -10.59375 C 9.546875 -9.664062 9.28125 -8.925781 8.75 -8.375 C 8.226562 -7.820312 7.535156 -7.457031 6.671875 -7.28125 L 6.671875 -7.203125 C 7.773438 -7.078125 8.597656 -6.726562 9.140625 -6.15625 C 9.691406 -5.582031 9.96875 -4.84375 9.96875 -3.9375 C 9.96875 -3.113281 9.78125 -2.394531 9.40625 -1.78125 C 9.03125 -1.164062 8.453125 -0.679688 7.671875 -0.328125 C 6.890625 0.015625 5.890625 0.1875 4.671875 0.1875 C 3.941406 0.1875 3.265625 0.128906 2.640625 0.015625 C 2.023438 -0.0859375 1.4375 -0.28125 0.875 -0.5625 L 0.875 -2.15625 C 1.457031 -1.851562 2.082031 -1.625 2.75 -1.46875 C 3.414062 -1.3125 4.0625 -1.234375 4.6875 -1.234375 C 5.925781 -1.234375 6.816406 -1.472656 7.359375 -1.953125 C 7.910156 -2.441406 8.1875 -3.113281 8.1875 -3.96875 C 8.1875 -4.832031 7.847656 -5.453125 7.171875 -5.828125 C 6.492188 -6.210938 5.539062 -6.40625 4.3125 -6.40625 L 2.984375 -6.40625 L 2.984375 -7.859375 L 4.34375 -7.859375 C 5.476562 -7.859375 6.335938 -8.097656 6.921875 -8.578125 C 7.503906 -9.054688 7.796875 -9.6875 7.796875 -10.46875 C 7.796875 -11.144531 7.570312 -11.664062 7.125 -12.03125 C 6.675781 -12.394531 6.0625 -12.578125 5.28125 -12.578125 C 4.53125 -12.578125 3.890625 -12.46875 3.359375 -12.25 C 2.835938 -12.03125 2.316406 -11.753906 1.796875 -11.421875 L 0.953125 -12.578125 C 1.441406 -12.972656 2.050781 -13.3125 2.78125 -13.59375 C 3.507812 -13.875 4.335938 -14.015625 5.265625 -14.015625 C 6.710938 -14.015625 7.785156 -13.691406 8.484375 -13.046875 C 9.191406 -12.398438 9.546875 -11.582031 9.546875 -10.59375 Z M 9.546875 -10.59375 "/></g></g></g><g fill="#000000" fill-opacity="1"><g transform="translate(100.165238, 34.393643)"><g><path d="M 11.921875 -6.421875 L 1.125 -6.421875 L 1.125 -7.21875 L 11.921875 -7.21875 Z M 11.921875 -3.625 L 1.125 -3.625 L 1.125 -4.40625 L 11.921875 -4.40625 Z M 11.921875 -3.625 "/></g></g></g><g fill="#000000" fill-opacity="1"><g transform="translate(59.287686, 32.123154)"><g><path d="M 7.3125 -4.875 C 7.3125 -4.4375 7.03125 -4.21875 6.46875 -4.21875 L 2.046875 -4.21875 C 1.859375 -4.21875 1.703125 -4.28125 1.578125 -4.40625 C 1.453125 -4.53125 1.390625 -4.6875 1.390625 -4.875 C 1.390625 -5.0625 1.453125 -5.210938 1.578125 -5.328125 C 1.703125 -5.453125 1.859375 -5.515625 2.046875 -5.515625 L 6.5625 -5.515625 C 6.757812 -5.515625 6.929688 -5.445312 7.078125 -5.3125 C 7.234375 -5.1875 7.3125 -5.039062 7.3125 -4.875 Z M 7.3125 -4.875 "/></g></g></g></svg>