<svg xmlns="http://www.w3.org/2000/svg" xmlns:xlink="http://www.w3.org/1999/xlink" width="626" zoomAndPan="magnify" viewBox="0 0 469.5 78.749999" height="105" preserveAspectRatio="xMidYMid meet" version="1.0"><defs><g/><clipPath id="12cfc8e875"><path d="M 292 31 L 357.785156 31 L 357.785156 44.835938 L 292 44.835938 Z M 292 31 " clip-rule="nonzero"/></clipPath><clipPath id="1e3d23c2a0"><path d="M 424 19 L 467.847656 19 L 467.847656 39 L 424 39 Z M 424 19 " clip-rule="nonzero"/></clipPath><clipPath id="f30f0ef2ce"><path d="M 424 37 L 467.847656 37 L 467.847656 57 L 424 57 Z M 424 37 " clip-rule="nonzero"/></clipPath><clipPath id="30995b87c4"><path d="M 381.121094 37 L 425 37 L 425 56 L 381.121094 56 Z M 381.121094 37 " clip-rule="nonzero"/></clipPath><clipPath id="6424297287"><path d="M 381.121094 0 L 467.847656 0 L 467.847656 75.511719 L 381.121094 75.511719 Z M 381.121094 0 " clip-rule="nonzero"/></clipPath></defs><g clip-path="url(#12cfc8e875)"><path fill="#4e2804" d="M 353.527344 37.066406 L 347.09375 32.777344 C 346.757812 32.554688 346.667969 32.101562 346.890625 31.765625 C 347.117188 31.429688 347.570312 31.339844 347.90625 31.5625 L 357.257812 37.796875 L 347.90625 44.03125 C 347.570312 44.253906 347.113281 44.164062 346.890625 43.828125 C 346.667969 43.492188 346.757812 43.039062 347.09375 42.816406 C 347.09375 42.816406 351.4375 39.921875 353.527344 38.527344 L 293 38.527344 C 292.59375 38.527344 292.269531 38.199219 292.265625 37.796875 C 292.269531 37.394531 292.59375 37.066406 293 37.066406 Z M 353.527344 37.066406 " fill-opacity="1" fill-rule="evenodd"/></g><path fill="#d88000" d="M 456.882812 19.441406 L 424.566406 37.621094 L 446.246094 1.015625 Z M 456.882812 19.441406 " fill-opacity="1" fill-rule="nonzero"/><g clip-path="url(#1e3d23c2a0)"><path fill="#d88000" d="M 467.382812 37.625 L 467.109375 38.097656 L 424.566406 37.621094 L 456.882812 19.441406 Z M 467.382812 37.625 " fill-opacity="1" fill-rule="nonzero"/></g><g clip-path="url(#f30f0ef2ce)"><path fill="#d88000" d="M 467.109375 38.097656 L 456.472656 56.519531 L 424.566406 37.621094 Z M 467.109375 38.097656 " fill-opacity="1" fill-rule="nonzero"/></g><path fill="#d88000" d="M 456.472656 56.519531 L 445.972656 74.707031 L 445.429688 74.707031 L 424.566406 37.621094 Z M 456.472656 56.519531 " fill-opacity="1" fill-rule="nonzero"/><path fill="#d88000" d="M 445.429688 74.707031 L 424.152344 74.707031 L 424.566406 37.621094 Z M 445.429688 74.707031 " fill-opacity="1" fill-rule="nonzero"/><path fill="#d88000" d="M 424.566406 37.621094 L 402.878906 74.238281 L 392.238281 55.808594 Z M 424.566406 37.621094 " fill-opacity="1" fill-rule="nonzero"/><g clip-path="url(#30995b87c4)"><path fill="#d88000" d="M 424.566406 37.621094 L 392.238281 55.808594 L 381.738281 37.625 L 382.015625 37.148438 Z M 424.566406 37.621094 " fill-opacity="1" fill-rule="nonzero"/></g><path fill="#d88000" d="M 424.566406 37.621094 L 382.015625 37.148438 L 392.652344 18.71875 Z M 424.566406 37.621094 " fill-opacity="1" fill-rule="nonzero"/><path fill="#d88000" d="M 424.566406 37.621094 L 392.652344 18.71875 L 403.148438 0.539062 L 403.703125 0.539062 Z M 424.566406 37.621094 " fill-opacity="1" fill-rule="nonzero"/><path fill="#d88000" d="M 446.246094 1.015625 L 424.566406 37.621094 L 424.980469 0.539062 L 445.972656 0.539062 Z M 446.246094 1.015625 " fill-opacity="1" fill-rule="nonzero"/><path fill="#ffffff" d="M 424.980469 0.539062 L 424.566406 37.621094 L 403.703125 0.539062 Z M 424.980469 0.539062 " fill-opacity="1" fill-rule="nonzero"/><path fill="#d88000" d="M 424.566406 37.621094 L 424.152344 74.707031 L 403.148438 74.707031 L 402.878906 74.238281 Z M 424.566406 37.621094 " fill-opacity="1" fill-rule="nonzero"/><g clip-path="url(#6424297287)"><path fill="#000000" d="M 467.546875 38.363281 L 467.992188 37.59375 L 467.957031 37.59375 L 457.074219 18.742188 L 446.839844 1.019531 L 446.683594 0.75 L 446.253906 0 L 446.238281 0.0273438 L 402.824219 0.0273438 L 402.839844 0.0507812 L 391.953125 18.902344 L 381.71875 36.628906 L 381.683594 36.695312 L 381.128906 37.652344 L 381.164062 37.652344 L 392.046875 56.503906 L 402.285156 74.234375 L 402.429688 74.484375 L 402.871094 75.253906 L 402.890625 75.222656 L 446.308594 75.222656 L 446.289062 75.183594 L 456.65625 57.226562 L 467.402344 38.613281 Z M 438.929688 37.269531 L 426.488281 37.128906 L 436.734375 31.367188 L 456.691406 20.136719 L 466.761719 37.578125 Z M 456.179688 19.246094 L 425.984375 36.234375 L 428.996094 31.148438 L 446.242188 2.035156 Z M 425.488281 1.050781 L 445.628906 1.050781 L 425.101562 35.710938 L 425.207031 26.125 Z M 424.460938 1.050781 L 424.171875 27.0625 L 424.074219 35.699219 L 404.582031 1.050781 Z M 403.425781 1.089844 L 423.179688 36.203125 L 396.265625 20.261719 L 393.351562 18.535156 Z M 382.898438 36.644531 L 392.835938 19.425781 L 422.65625 37.085938 L 420.285156 37.0625 Z M 422.644531 38.113281 L 419.414062 39.929688 L 392.429688 55.113281 L 382.355469 37.664062 Z M 402.882812 73.21875 L 392.941406 56 L 416.722656 42.621094 L 423.148438 39.007812 L 415.660156 51.644531 Z M 403.5 74.195312 L 424.03125 39.53125 L 423.644531 74.195312 Z M 424.671875 74.195312 L 425.019531 42.949219 L 425.058594 39.542969 L 444.550781 74.195312 Z M 445.703125 74.144531 L 425.953125 39.039062 L 455.773438 56.703125 Z M 456.285156 55.8125 L 430.324219 40.4375 L 426.476562 38.15625 L 466.222656 38.601562 Z M 456.285156 55.8125 " fill-opacity="1" fill-rule="nonzero"/></g><g fill="#000000" fill-opacity="1"><g transform="translate(9.523536, 37.909919)"><g><path d="M 8.171875 -13.078125 C 6.617188 -13.078125 5.394531 -12.554688 4.5 -11.515625 C 3.601562 -10.472656 3.15625 -9.046875 3.15625 -7.234375 C 3.15625 -5.441406 3.570312 -4.019531 4.40625 -2.96875 C 5.238281 -1.914062 6.484375 -1.390625 8.140625 -1.390625 C 8.765625 -1.390625 9.359375 -1.441406 9.921875 -1.546875 C 10.492188 -1.660156 11.054688 -1.800781 11.609375 -1.96875 L 11.609375 -0.390625 C 11.066406 -0.179688 10.507812 -0.03125 9.9375 0.0625 C 9.363281 0.15625 8.679688 0.203125 7.890625 0.203125 C 6.410156 0.203125 5.175781 -0.0976562 4.1875 -0.703125 C 3.207031 -1.316406 2.46875 -2.179688 1.96875 -3.296875 C 1.476562 -4.421875 1.234375 -5.738281 1.234375 -7.25 C 1.234375 -8.707031 1.5 -9.992188 2.03125 -11.109375 C 2.570312 -12.222656 3.359375 -13.09375 4.390625 -13.71875 C 5.429688 -14.351562 6.695312 -14.671875 8.1875 -14.671875 C 9.71875 -14.671875 11.046875 -14.390625 12.171875 -13.828125 L 11.453125 -12.28125 C 11.003906 -12.476562 10.503906 -12.660156 9.953125 -12.828125 C 9.410156 -12.992188 8.816406 -13.078125 8.171875 -13.078125 Z M 8.171875 -13.078125 "/></g></g></g><g fill="#000000" fill-opacity="1"><g transform="translate(22.332721, 37.909919)"><g><path d="M 11.171875 -5.453125 C 11.171875 -3.648438 10.710938 -2.253906 9.796875 -1.265625 C 8.890625 -0.285156 7.65625 0.203125 6.09375 0.203125 C 5.132812 0.203125 4.28125 -0.015625 3.53125 -0.453125 C 2.78125 -0.890625 2.1875 -1.53125 1.75 -2.375 C 1.320312 -3.21875 1.109375 -4.242188 1.109375 -5.453125 C 1.109375 -7.242188 1.554688 -8.625 2.453125 -9.59375 C 3.359375 -10.570312 4.59375 -11.0625 6.15625 -11.0625 C 7.132812 -11.0625 8 -10.84375 8.75 -10.40625 C 9.507812 -9.96875 10.101562 -9.332031 10.53125 -8.5 C 10.957031 -7.664062 11.171875 -6.648438 11.171875 -5.453125 Z M 2.953125 -5.453125 C 2.953125 -4.171875 3.207031 -3.15625 3.71875 -2.40625 C 4.226562 -1.65625 5.035156 -1.28125 6.140625 -1.28125 C 7.234375 -1.28125 8.035156 -1.65625 8.546875 -2.40625 C 9.066406 -3.15625 9.328125 -4.171875 9.328125 -5.453125 C 9.328125 -6.734375 9.066406 -7.738281 8.546875 -8.46875 C 8.035156 -9.195312 7.226562 -9.5625 6.125 -9.5625 C 5.007812 -9.5625 4.203125 -9.195312 3.703125 -8.46875 C 3.203125 -7.738281 2.953125 -6.734375 2.953125 -5.453125 Z M 2.953125 -5.453125 "/></g></g></g><g fill="#000000" fill-opacity="1"><g transform="translate(34.594681, 37.909919)"><g><path d="M 6.953125 -11.0625 C 8.242188 -11.0625 9.21875 -10.742188 9.875 -10.109375 C 10.539062 -9.472656 10.875 -8.460938 10.875 -7.078125 L 10.875 0 L 9.125 0 L 9.125 -6.953125 C 9.125 -8.691406 8.3125 -9.5625 6.6875 -9.5625 C 5.488281 -9.5625 4.65625 -9.222656 4.1875 -8.546875 C 3.726562 -7.867188 3.5 -6.898438 3.5 -5.640625 L 3.5 0 L 1.71875 0 L 1.71875 -10.859375 L 3.15625 -10.859375 L 3.421875 -9.390625 L 3.53125 -9.390625 C 3.875 -9.953125 4.359375 -10.367188 4.984375 -10.640625 C 5.609375 -10.921875 6.265625 -11.0625 6.953125 -11.0625 Z M 6.953125 -11.0625 "/></g></g></g><g fill="#000000" fill-opacity="1"><g transform="translate(47.120118, 37.909919)"><g><path d="M 5.34375 -1.25 C 5.613281 -1.25 5.890625 -1.269531 6.171875 -1.3125 C 6.460938 -1.351562 6.695312 -1.410156 6.875 -1.484375 L 6.875 -0.125 C 6.6875 -0.03125 6.414062 0.046875 6.0625 0.109375 C 5.707031 0.171875 5.367188 0.203125 5.046875 0.203125 C 4.472656 0.203125 3.945312 0.101562 3.46875 -0.09375 C 2.988281 -0.289062 2.597656 -0.628906 2.296875 -1.109375 C 2.003906 -1.597656 1.859375 -2.28125 1.859375 -3.15625 L 1.859375 -9.484375 L 0.328125 -9.484375 L 0.328125 -10.328125 L 1.890625 -11.046875 L 2.59375 -13.359375 L 3.640625 -13.359375 L 3.640625 -10.859375 L 6.78125 -10.859375 L 6.78125 -9.484375 L 3.640625 -9.484375 L 3.640625 -3.203125 C 3.640625 -2.535156 3.796875 -2.039062 4.109375 -1.71875 C 4.429688 -1.40625 4.84375 -1.25 5.34375 -1.25 Z M 5.34375 -1.25 "/></g></g></g><g fill="#000000" fill-opacity="1"><g transform="translate(54.436753, 37.909919)"><g><path d="M 11.171875 -5.453125 C 11.171875 -3.648438 10.710938 -2.253906 9.796875 -1.265625 C 8.890625 -0.285156 7.65625 0.203125 6.09375 0.203125 C 5.132812 0.203125 4.28125 -0.015625 3.53125 -0.453125 C 2.78125 -0.890625 2.1875 -1.53125 1.75 -2.375 C 1.320312 -3.21875 1.109375 -4.242188 1.109375 -5.453125 C 1.109375 -7.242188 1.554688 -8.625 2.453125 -9.59375 C 3.359375 -10.570312 4.59375 -11.0625 6.15625 -11.0625 C 7.132812 -11.0625 8 -10.84375 8.75 -10.40625 C 9.507812 -9.96875 10.101562 -9.332031 10.53125 -8.5 C 10.957031 -7.664062 11.171875 -6.648438 11.171875 -5.453125 Z M 2.953125 -5.453125 C 2.953125 -4.171875 3.207031 -3.15625 3.71875 -2.40625 C 4.226562 -1.65625 5.035156 -1.28125 6.140625 -1.28125 C 7.234375 -1.28125 8.035156 -1.65625 8.546875 -2.40625 C 9.066406 -3.15625 9.328125 -4.171875 9.328125 -5.453125 C 9.328125 -6.734375 9.066406 -7.738281 8.546875 -8.46875 C 8.035156 -9.195312 7.226562 -9.5625 6.125 -9.5625 C 5.007812 -9.5625 4.203125 -9.195312 3.703125 -8.46875 C 3.203125 -7.738281 2.953125 -6.734375 2.953125 -5.453125 Z M 2.953125 -5.453125 "/></g></g></g><g fill="#000000" fill-opacity="1"><g transform="translate(66.698714, 37.909919)"><g><path d="M 3.5 -15.40625 L 3.5 -10.875 C 3.5 -10.34375 3.46875 -9.835938 3.40625 -9.359375 L 3.53125 -9.359375 C 3.875 -9.910156 4.347656 -10.328125 4.953125 -10.609375 C 5.554688 -10.898438 6.207031 -11.046875 6.90625 -11.046875 C 8.21875 -11.046875 9.207031 -10.726562 9.875 -10.09375 C 10.539062 -9.46875 10.875 -8.460938 10.875 -7.078125 L 10.875 0 L 9.125 0 L 9.125 -6.953125 C 9.125 -8.691406 8.3125 -9.5625 6.6875 -9.5625 C 5.46875 -9.5625 4.628906 -9.21875 4.171875 -8.53125 C 3.722656 -7.851562 3.5 -6.878906 3.5 -5.609375 L 3.5 0 L 1.71875 0 L 1.71875 -15.40625 Z M 3.5 -15.40625 "/></g></g></g><g fill="#000000" fill-opacity="1"><g transform="translate(79.224151, 37.909919)"><g><path d="M 4.6875 -9.140625 C 4.6875 -8.816406 4.578125 -8.53125 4.359375 -8.28125 C 4.148438 -8.03125 3.894531 -7.90625 3.59375 -7.90625 C 3.257812 -7.90625 2.988281 -8.023438 2.78125 -8.265625 C 2.570312 -8.515625 2.46875 -8.804688 2.46875 -9.140625 C 2.46875 -9.460938 2.570312 -9.734375 2.78125 -9.953125 C 2.988281 -10.179688 3.257812 -10.296875 3.59375 -10.296875 C 3.894531 -10.296875 4.148438 -10.179688 4.359375 -9.953125 C 4.578125 -9.722656 4.6875 -9.453125 4.6875 -9.140625 Z M 4.6875 -1.4375 C 4.6875 -1.144531 4.578125 -0.875 4.359375 -0.625 C 4.140625 -0.382812 3.882812 -0.265625 3.59375 -0.265625 C 3.25 -0.265625 2.972656 -0.378906 2.765625 -0.609375 C 2.566406 -0.835938 2.46875 -1.113281 2.46875 -1.4375 C 2.46875 -1.78125 2.570312 -2.0625 2.78125 -2.28125 C 2.988281 -2.5 3.257812 -2.609375 3.59375 -2.609375 C 3.894531 -2.609375 4.148438 -2.492188 4.359375 -2.265625 C 4.578125 -2.035156 4.6875 -1.757812 4.6875 -1.4375 Z M 4.6875 -1.4375 "/></g></g></g><g fill="#000000" fill-opacity="1"><g transform="translate(86.621862, 37.909919)"><g/></g></g><path fill="#000000" d="M 92.605469 39.40625 L 104.203125 39.40625 L 104.203125 40.902344 L 92.605469 40.902344 Z M 92.605469 39.40625 " fill-opacity="1" fill-rule="nonzero"/><g fill="#000000" fill-opacity="1"><g transform="translate(92.603536, 37.909919)"><g><path d="M 10.53125 0 L 0.96875 0 L 0.96875 -1.484375 L 4.765625 -5.3125 C 5.484375 -6.039062 6.09375 -6.6875 6.59375 -7.25 C 7.101562 -7.820312 7.484375 -8.378906 7.734375 -8.921875 C 7.992188 -9.460938 8.125 -10.0625 8.125 -10.71875 C 8.125 -11.519531 7.882812 -12.125 7.40625 -12.53125 C 6.9375 -12.945312 6.328125 -13.15625 5.578125 -13.15625 C 4.859375 -13.15625 4.234375 -13.03125 3.703125 -12.78125 C 3.179688 -12.539062 2.644531 -12.207031 2.09375 -11.78125 L 1.140625 -12.96875 C 1.703125 -13.4375 2.347656 -13.835938 3.078125 -14.171875 C 3.816406 -14.503906 4.648438 -14.671875 5.578125 -14.671875 C 6.921875 -14.671875 7.984375 -14.328125 8.765625 -13.640625 C 9.554688 -12.953125 9.953125 -12.015625 9.953125 -10.828125 C 9.953125 -10.066406 9.796875 -9.351562 9.484375 -8.6875 C 9.171875 -8.03125 8.738281 -7.375 8.1875 -6.71875 C 7.632812 -6.070312 6.984375 -5.394531 6.234375 -4.6875 L 3.21875 -1.703125 L 3.21875 -1.625 L 10.53125 -1.625 Z M 10.53125 0 "/></g></g></g><g fill="#000000" fill-opacity="1"><g transform="translate(104.203429, 37.909919)"><g/></g></g><g fill="#000000" fill-opacity="1"><g transform="translate(110.182399, 37.909919)"><g><path d="M 12.578125 -5.53125 L 7.421875 -5.53125 L 7.421875 -0.421875 L 6.421875 -0.421875 L 6.421875 -5.53125 L 1.28125 -5.53125 L 1.28125 -6.5 L 6.421875 -6.5 L 6.421875 -11.609375 L 7.421875 -11.609375 L 7.421875 -6.5 L 12.578125 -6.5 Z M 12.578125 -5.53125 "/></g></g></g><g fill="#000000" fill-opacity="1"><g transform="translate(123.822557, 37.909919)"><g/></g></g><path fill="#000000" d="M 129.808594 39.40625 L 141.410156 39.40625 L 141.410156 40.902344 L 129.808594 40.902344 Z M 129.808594 39.40625 " fill-opacity="1" fill-rule="nonzero"/><g fill="#000000" fill-opacity="1"><g transform="translate(129.809638, 37.909919)"><g><path d="M 7.1875 0 L 5.453125 0 L 5.453125 -10.109375 C 5.453125 -10.691406 5.457031 -11.15625 5.46875 -11.5 C 5.476562 -11.851562 5.5 -12.222656 5.53125 -12.609375 C 5.3125 -12.390625 5.109375 -12.203125 4.921875 -12.046875 C 4.742188 -11.898438 4.53125 -11.710938 4.28125 -11.484375 L 2.734375 -10.234375 L 1.796875 -11.4375 L 5.71875 -14.46875 L 7.1875 -14.46875 Z M 7.1875 0 "/></g></g></g><g fill="#000000" fill-opacity="1"><g transform="translate(141.409531, 37.909919)"><g/></g></g><g fill="#000000" fill-opacity="1"><g transform="translate(147.388501, 37.909919)"><g><path d="M 12.484375 -6.734375 L 1.171875 -6.734375 L 1.171875 -7.5625 L 12.484375 -7.5625 Z M 12.484375 -3.796875 L 1.171875 -3.796875 L 1.171875 -4.625 L 12.484375 -4.625 Z M 12.484375 -3.796875 "/></g></g></g><g fill="#000000" fill-opacity="1"><g transform="translate(161.028659, 37.909919)"><g/></g></g><path fill="#000000" d="M 167.015625 39.40625 L 215.808594 39.40625 L 215.808594 40.902344 L 167.015625 40.902344 Z M 167.015625 39.40625 " fill-opacity="1" fill-rule="nonzero"/><g fill="#000000" fill-opacity="1"><g transform="translate(167.01574, 37.909919)"><g><path d="M 5.78125 -14.671875 C 7.050781 -14.671875 8.085938 -14.375 8.890625 -13.78125 C 9.703125 -13.1875 10.109375 -12.328125 10.109375 -11.203125 C 10.109375 -10.617188 9.984375 -10.109375 9.734375 -9.671875 C 9.484375 -9.242188 9.148438 -8.863281 8.734375 -8.53125 C 8.316406 -8.207031 7.859375 -7.914062 7.359375 -7.65625 C 7.953125 -7.363281 8.488281 -7.039062 8.96875 -6.6875 C 9.457031 -6.332031 9.847656 -5.914062 10.140625 -5.4375 C 10.429688 -4.96875 10.578125 -4.40625 10.578125 -3.75 C 10.578125 -2.53125 10.144531 -1.566406 9.28125 -0.859375 C 8.414062 -0.148438 7.269531 0.203125 5.84375 0.203125 C 4.269531 0.203125 3.066406 -0.132812 2.234375 -0.8125 C 1.410156 -1.5 1 -2.457031 1 -3.6875 C 1 -4.332031 1.132812 -4.898438 1.40625 -5.390625 C 1.6875 -5.890625 2.054688 -6.3125 2.515625 -6.65625 C 2.972656 -7.007812 3.46875 -7.3125 4 -7.5625 C 3.28125 -7.96875 2.675781 -8.457031 2.1875 -9.03125 C 1.695312 -9.601562 1.453125 -10.335938 1.453125 -11.234375 C 1.453125 -11.960938 1.640625 -12.582031 2.015625 -13.09375 C 2.398438 -13.601562 2.914062 -13.992188 3.5625 -14.265625 C 4.21875 -14.535156 4.957031 -14.671875 5.78125 -14.671875 Z M 5.75 -13.234375 C 5 -13.234375 4.382812 -13.050781 3.90625 -12.6875 C 3.4375 -12.332031 3.203125 -11.816406 3.203125 -11.140625 C 3.203125 -10.640625 3.316406 -10.222656 3.546875 -9.890625 C 3.785156 -9.554688 4.109375 -9.269531 4.515625 -9.03125 C 4.921875 -8.789062 5.367188 -8.5625 5.859375 -8.34375 C 6.554688 -8.644531 7.144531 -9.003906 7.625 -9.421875 C 8.101562 -9.835938 8.34375 -10.410156 8.34375 -11.140625 C 8.34375 -11.816406 8.109375 -12.332031 7.640625 -12.6875 C 7.171875 -13.050781 6.539062 -13.234375 5.75 -13.234375 Z M 2.734375 -3.671875 C 2.734375 -2.960938 2.984375 -2.375 3.484375 -1.90625 C 3.984375 -1.445312 4.753906 -1.21875 5.796875 -1.21875 C 6.785156 -1.21875 7.535156 -1.445312 8.046875 -1.90625 C 8.566406 -2.375 8.828125 -2.984375 8.828125 -3.734375 C 8.828125 -4.429688 8.550781 -5.015625 8 -5.484375 C 7.445312 -5.953125 6.710938 -6.359375 5.796875 -6.703125 L 5.46875 -6.828125 C 4.582031 -6.429688 3.90625 -5.988281 3.4375 -5.5 C 2.96875 -5.019531 2.734375 -4.410156 2.734375 -3.671875 Z M 2.734375 -3.671875 "/></g></g></g><g fill="#000000" fill-opacity="1"><g transform="translate(178.608857, 37.909919)"><g/></g></g><g fill="#000000" fill-opacity="1"><g transform="translate(184.587827, 37.909919)"><g><path d="M 12.578125 -5.53125 L 7.421875 -5.53125 L 7.421875 -0.421875 L 6.421875 -0.421875 L 6.421875 -5.53125 L 1.28125 -5.53125 L 1.28125 -6.5 L 6.421875 -6.5 L 6.421875 -11.609375 L 7.421875 -11.609375 L 7.421875 -6.5 L 12.578125 -6.5 Z M 12.578125 -5.53125 "/></g></g></g><g fill="#000000" fill-opacity="1"><g transform="translate(198.227985, 37.909919)"><g/></g></g><g fill="#000000" fill-opacity="1"><g transform="translate(204.206955, 37.909919)"><g><path d="M 9.984375 -11.078125 C 9.984375 -10.109375 9.707031 -9.335938 9.15625 -8.765625 C 8.613281 -8.191406 7.890625 -7.8125 6.984375 -7.625 L 6.984375 -7.53125 C 8.140625 -7.40625 9.003906 -7.039062 9.578125 -6.4375 C 10.148438 -5.84375 10.4375 -5.066406 10.4375 -4.109375 C 10.4375 -3.265625 10.238281 -2.515625 9.84375 -1.859375 C 9.457031 -1.210938 8.851562 -0.707031 8.03125 -0.34375 C 7.21875 0.0195312 6.171875 0.203125 4.890625 0.203125 C 4.128906 0.203125 3.421875 0.144531 2.765625 0.03125 C 2.117188 -0.0820312 1.5 -0.289062 0.90625 -0.59375 L 0.90625 -2.25 C 1.519531 -1.9375 2.175781 -1.695312 2.875 -1.53125 C 3.582031 -1.375 4.257812 -1.296875 4.90625 -1.296875 C 6.195312 -1.296875 7.128906 -1.546875 7.703125 -2.046875 C 8.285156 -2.554688 8.578125 -3.257812 8.578125 -4.15625 C 8.578125 -5.0625 8.21875 -5.710938 7.5 -6.109375 C 6.789062 -6.503906 5.796875 -6.703125 4.515625 -6.703125 L 3.125 -6.703125 L 3.125 -8.234375 L 4.546875 -8.234375 C 5.734375 -8.234375 6.632812 -8.484375 7.25 -8.984375 C 7.863281 -9.484375 8.171875 -10.144531 8.171875 -10.96875 C 8.171875 -11.664062 7.929688 -12.207031 7.453125 -12.59375 C 6.984375 -12.976562 6.34375 -13.171875 5.53125 -13.171875 C 4.75 -13.171875 4.082031 -13.054688 3.53125 -12.828125 C 2.976562 -12.597656 2.429688 -12.304688 1.890625 -11.953125 L 1 -13.171875 C 1.507812 -13.578125 2.144531 -13.925781 2.90625 -14.21875 C 3.664062 -14.519531 4.535156 -14.671875 5.515625 -14.671875 C 7.023438 -14.671875 8.144531 -14.332031 8.875 -13.65625 C 9.613281 -12.976562 9.984375 -12.117188 9.984375 -11.078125 Z M 9.984375 -11.078125 "/></g></g></g><g fill="#000000" fill-opacity="1"><g transform="translate(215.810058, 37.909919)"><g/></g></g><g fill="#000000" fill-opacity="1"><g transform="translate(221.789028, 37.909919)"><g><path d="M 12.484375 -6.734375 L 1.171875 -6.734375 L 1.171875 -7.5625 L 12.484375 -7.5625 Z M 12.484375 -3.796875 L 1.171875 -3.796875 L 1.171875 -4.625 L 12.484375 -4.625 Z M 12.484375 -3.796875 "/></g></g></g><g fill="#000000" fill-opacity="1"><g transform="translate(235.429186, 37.909919)"><g/></g></g><path fill="#000000" d="M 241.417969 39.40625 L 264.605469 39.40625 L 264.605469 40.902344 L 241.417969 40.902344 Z M 241.417969 39.40625 " fill-opacity="1" fill-rule="nonzero"/><g fill="#000000" fill-opacity="1"><g transform="translate(241.416267, 37.909919)"><g><path d="M 7.1875 0 L 5.453125 0 L 5.453125 -10.109375 C 5.453125 -10.691406 5.457031 -11.15625 5.46875 -11.5 C 5.476562 -11.851562 5.5 -12.222656 5.53125 -12.609375 C 5.3125 -12.390625 5.109375 -12.203125 4.921875 -12.046875 C 4.742188 -11.898438 4.53125 -11.710938 4.28125 -11.484375 L 2.734375 -10.234375 L 1.796875 -11.4375 L 5.71875 -14.46875 L 7.1875 -14.46875 Z M 7.1875 0 "/></g></g></g><g fill="#000000" fill-opacity="1"><g transform="translate(253.009384, 37.909919)"><g><path d="M 7.1875 0 L 5.453125 0 L 5.453125 -10.109375 C 5.453125 -10.691406 5.457031 -11.15625 5.46875 -11.5 C 5.476562 -11.851562 5.5 -12.222656 5.53125 -12.609375 C 5.3125 -12.390625 5.109375 -12.203125 4.921875 -12.046875 C 4.742188 -11.898438 4.53125 -11.710938 4.28125 -11.484375 L 2.734375 -10.234375 L 1.796875 -11.4375 L 5.71875 -14.46875 L 7.1875 -14.46875 Z M 7.1875 0 "/></g></g></g><g fill="#000000" fill-opacity="1"><g transform="translate(9.523536, 62.581595)"><g/></g></g><g fill="#000000" fill-opacity="1"><g transform="translate(15.502506, 62.581595)"><g/></g></g><g fill="#000000" fill-opacity="1"><g transform="translate(21.481476, 62.581595)"><g/></g></g><g fill="#000000" fill-opacity="1"><g transform="translate(27.460447, 62.581595)"><g/></g></g><g fill="#000000" fill-opacity="1"><g transform="translate(33.439417, 62.581595)"><g/></g></g><g fill="#000000" fill-opacity="1"><g transform="translate(39.418388, 62.581595)"><g/></g></g><g fill="#000000" fill-opacity="1"><g transform="translate(45.397358, 62.581595)"><g/></g></g><g fill="#000000" fill-opacity="1"><g transform="translate(51.376328, 62.581595)"><g/></g></g><g fill="#000000" fill-opacity="1"><g transform="translate(57.355299, 62.581595)"><g/></g></g><g fill="#000000" fill-opacity="1"><g transform="translate(63.334269, 62.581595)"><g/></g></g><g fill="#000000" fill-opacity="1"><g transform="translate(69.313239, 62.581595)"><g/></g></g><g fill="#000000" fill-opacity="1"><g transform="translate(75.29221, 62.581595)"><g/></g></g><g fill="#000000" fill-opacity="1"><g transform="translate(81.27118, 62.581595)"><g/></g></g><g fill="#000000" fill-opacity="1"><g transform="translate(87.250151, 62.581595)"><g/></g></g><g fill="#000000" fill-opacity="1"><g transform="translate(93.234346, 62.581595)"><g><path d="M 9.984375 -11.078125 C 9.984375 -10.109375 9.707031 -9.335938 9.15625 -8.765625 C 8.613281 -8.191406 7.890625 -7.8125 6.984375 -7.625 L 6.984375 -7.53125 C 8.140625 -7.40625 9.003906 -7.039062 9.578125 -6.4375 C 10.148438 -5.84375 10.4375 -5.066406 10.4375 -4.109375 C 10.4375 -3.265625 10.238281 -2.515625 9.84375 -1.859375 C 9.457031 -1.210938 8.851562 -0.707031 8.03125 -0.34375 C 7.21875 0.0195312 6.171875 0.203125 4.890625 0.203125 C 4.128906 0.203125 3.421875 0.144531 2.765625 0.03125 C 2.117188 -0.0820312 1.5 -0.289062 0.90625 -0.59375 L 0.90625 -2.25 C 1.519531 -1.9375 2.175781 -1.695312 2.875 -1.53125 C 3.582031 -1.375 4.257812 -1.296875 4.90625 -1.296875 C 6.195312 -1.296875 7.128906 -1.546875 7.703125 -2.046875 C 8.285156 -2.554688 8.578125 -3.257812 8.578125 -4.15625 C 8.578125 -5.0625 8.21875 -5.710938 7.5 -6.109375 C 6.789062 -6.503906 5.796875 -6.703125 4.515625 -6.703125 L 3.125 -6.703125 L 3.125 -8.234375 L 4.546875 -8.234375 C 5.734375 -8.234375 6.632812 -8.484375 7.25 -8.984375 C 7.863281 -9.484375 8.171875 -10.144531 8.171875 -10.96875 C 8.171875 -11.664062 7.929688 -12.207031 7.453125 -12.59375 C 6.984375 -12.976562 6.34375 -13.171875 5.53125 -13.171875 C 4.75 -13.171875 4.082031 -13.054688 3.53125 -12.828125 C 2.976562 -12.597656 2.429688 -12.304688 1.890625 -11.953125 L 1 -13.171875 C 1.507812 -13.578125 2.144531 -13.925781 2.90625 -14.21875 C 3.664062 -14.519531 4.535156 -14.671875 5.515625 -14.671875 C 7.023438 -14.671875 8.144531 -14.332031 8.875 -13.65625 C 9.613281 -12.976562 9.984375 -12.117188 9.984375 -11.078125 Z M 9.984375 -11.078125 "/></g></g></g><g fill="#000000" fill-opacity="1"><g transform="translate(104.834239, 62.581595)"><g/></g></g><g fill="#000000" fill-opacity="1"><g transform="translate(110.813209, 62.581595)"><g/></g></g><g fill="#000000" fill-opacity="1"><g transform="translate(116.792179, 62.581595)"><g/></g></g><g fill="#000000" fill-opacity="1"><g transform="translate(122.77115, 62.581595)"><g/></g></g><g fill="#000000" fill-opacity="1"><g transform="translate(128.758288, 62.581595)"><g><path d="M 11.1875 -3.28125 L 9.078125 -3.28125 L 9.078125 0 L 7.359375 0 L 7.359375 -3.28125 L 0.421875 -3.28125 L 0.421875 -4.796875 L 7.234375 -14.546875 L 9.078125 -14.546875 L 9.078125 -4.890625 L 11.1875 -4.890625 Z M 7.359375 -4.890625 L 7.359375 -9.4375 C 7.359375 -10.144531 7.367188 -10.742188 7.390625 -11.234375 C 7.410156 -11.734375 7.429688 -12.203125 7.453125 -12.640625 L 7.375 -12.640625 C 7.269531 -12.390625 7.132812 -12.113281 6.96875 -11.8125 C 6.8125 -11.519531 6.65625 -11.269531 6.5 -11.0625 L 2.171875 -4.890625 Z M 7.359375 -4.890625 "/></g></g></g><g fill="#000000" fill-opacity="1"><g transform="translate(140.358181, 62.581595)"><g/></g></g><g fill="#000000" fill-opacity="1"><g transform="translate(146.337152, 62.581595)"><g/></g></g><g fill="#000000" fill-opacity="1"><g transform="translate(152.316122, 62.581595)"><g/></g></g><g fill="#000000" fill-opacity="1"><g transform="translate(158.295092, 62.581595)"><g/></g></g><g fill="#000000" fill-opacity="1"><g transform="translate(164.274063, 62.581595)"><g/></g></g><g fill="#000000" fill-opacity="1"><g transform="translate(170.253033, 62.581595)"><g/></g></g><g fill="#000000" fill-opacity="1"><g transform="translate(176.232577, 62.581595)"><g><path d="M 7.1875 0 L 5.453125 0 L 5.453125 -10.109375 C 5.453125 -10.691406 5.457031 -11.15625 5.46875 -11.5 C 5.476562 -11.851562 5.5 -12.222656 5.53125 -12.609375 C 5.3125 -12.390625 5.109375 -12.203125 4.921875 -12.046875 C 4.742188 -11.898438 4.53125 -11.710938 4.28125 -11.484375 L 2.734375 -10.234375 L 1.796875 -11.4375 L 5.71875 -14.46875 L 7.1875 -14.46875 Z M 7.1875 0 "/></g></g></g><g fill="#000000" fill-opacity="1"><g transform="translate(187.825694, 62.581595)"><g><path d="M 10.53125 0 L 0.96875 0 L 0.96875 -1.484375 L 4.765625 -5.3125 C 5.484375 -6.039062 6.09375 -6.6875 6.59375 -7.25 C 7.101562 -7.820312 7.484375 -8.378906 7.734375 -8.921875 C 7.992188 -9.460938 8.125 -10.0625 8.125 -10.71875 C 8.125 -11.519531 7.882812 -12.125 7.40625 -12.53125 C 6.9375 -12.945312 6.328125 -13.15625 5.578125 -13.15625 C 4.859375 -13.15625 4.234375 -13.03125 3.703125 -12.78125 C 3.179688 -12.539062 2.644531 -12.207031 2.09375 -11.78125 L 1.140625 -12.96875 C 1.703125 -13.4375 2.347656 -13.835938 3.078125 -14.171875 C 3.816406 -14.503906 4.648438 -14.671875 5.578125 -14.671875 C 6.921875 -14.671875 7.984375 -14.328125 8.765625 -13.640625 C 9.554688 -12.953125 9.953125 -12.015625 9.953125 -10.828125 C 9.953125 -10.066406 9.796875 -9.351562 9.484375 -8.6875 C 9.171875 -8.03125 8.738281 -7.375 8.1875 -6.71875 C 7.632812 -6.070312 6.984375 -5.394531 6.234375 -4.6875 L 3.21875 -1.703125 L 3.21875 -1.625 L 10.53125 -1.625 Z M 10.53125 0 "/></g></g></g><g fill="#000000" fill-opacity="1"><g transform="translate(199.420678, 62.581595)"><g/></g></g><g fill="#000000" fill-opacity="1"><g transform="translate(205.399649, 62.581595)"><g/></g></g><g fill="#000000" fill-opacity="1"><g transform="translate(211.378619, 62.581595)"><g/></g></g><g fill="#000000" fill-opacity="1"><g transform="translate(217.357589, 62.581595)"><g/></g></g><g fill="#000000" fill-opacity="1"><g transform="translate(223.33656, 62.581595)"><g/></g></g><g fill="#000000" fill-opacity="1"><g transform="translate(229.31553, 62.581595)"><g/></g></g><g fill="#000000" fill-opacity="1"><g transform="translate(235.294501, 62.581595)"><g/></g></g><g fill="#000000" fill-opacity="1"><g transform="translate(241.276087, 62.581595)"><g><path d="M 7.1875 0 L 5.453125 0 L 5.453125 -10.109375 C 5.453125 -10.691406 5.457031 -11.15625 5.46875 -11.5 C 5.476562 -11.851562 5.5 -12.222656 5.53125 -12.609375 C 5.3125 -12.390625 5.109375 -12.203125 4.921875 -12.046875 C 4.742188 -11.898438 4.53125 -11.710938 4.28125 -11.484375 L 2.734375 -10.234375 L 1.796875 -11.4375 L 5.71875 -14.46875 L 7.1875 -14.46875 Z M 7.1875 0 "/></g></g></g><g fill="#000000" fill-opacity="1"><g transform="translate(252.869204, 62.581595)"><g><path d="M 10.53125 0 L 0.96875 0 L 0.96875 -1.484375 L 4.765625 -5.3125 C 5.484375 -6.039062 6.09375 -6.6875 6.59375 -7.25 C 7.101562 -7.820312 7.484375 -8.378906 7.734375 -8.921875 C 7.992188 -9.460938 8.125 -10.0625 8.125 -10.71875 C 8.125 -11.519531 7.882812 -12.125 7.40625 -12.53125 C 6.9375 -12.945312 6.328125 -13.15625 5.578125 -13.15625 C 4.859375 -13.15625 4.234375 -13.03125 3.703125 -12.78125 C 3.179688 -12.539062 2.644531 -12.207031 2.09375 -11.78125 L 1.140625 -12.96875 C 1.703125 -13.4375 2.347656 -13.835938 3.078125 -14.171875 C 3.816406 -14.503906 4.648438 -14.671875 5.578125 -14.671875 C 6.921875 -14.671875 7.984375 -14.328125 8.765625 -13.640625 C 9.554688 -12.953125 9.953125 -12.015625 9.953125 -10.828125 C 9.953125 -10.066406 9.796875 -9.351562 9.484375 -8.6875 C 9.171875 -8.03125 8.738281 -7.375 8.1875 -6.71875 C 7.632812 -6.070312 6.984375 -5.394531 6.234375 -4.6875 L 3.21875 -1.703125 L 3.21875 -1.625 L 10.53125 -1.625 Z M 10.53125 0 "/></g></g></g></svg>