<svg xmlns="http://www.w3.org/2000/svg" xmlns:xlink="http://www.w3.org/1999/xlink" width="563" zoomAndPan="magnify" viewBox="0 0 422.25 73.499998" height="98" preserveAspectRatio="xMidYMid meet" version="1.0"><defs><g/><clipPath id="4dde332aac"><path d="M 373 0 L 420.445312 0 L 420.445312 48 L 373 48 Z M 373 0 " clip-rule="nonzero"/></clipPath><clipPath id="ae10942bc6"><path d="M 384 18 L 420.445312 18 L 420.445312 55 L 384 55 Z M 384 18 " clip-rule="nonzero"/></clipPath><clipPath id="7aed8634ab"><path d="M 373 7 L 420.445312 7 L 420.445312 66 L 373 66 Z M 373 7 " clip-rule="nonzero"/></clipPath><clipPath id="dc92ddd4bb"><path d="M 373 25 L 420.445312 25 L 420.445312 73.003906 L 373 73.003906 Z M 373 25 " clip-rule="nonzero"/></clipPath><clipPath id="5adc1a6bc2"><path d="M 347.441406 25 L 395 25 L 395 73.003906 L 347.441406 73.003906 Z M 347.441406 25 " clip-rule="nonzero"/></clipPath><clipPath id="6c75a8b73f"><path d="M 347.441406 18 L 384 18 L 384 55 L 347.441406 55 Z M 347.441406 18 " clip-rule="nonzero"/></clipPath><clipPath id="350b7f5d38"><path d="M 347.441406 7 L 395 7 L 395 66 L 347.441406 66 Z M 347.441406 7 " clip-rule="nonzero"/></clipPath><clipPath id="129cecea81"><path d="M 347.441406 0 L 395 0 L 395 48 L 347.441406 48 Z M 347.441406 0 " clip-rule="nonzero"/></clipPath></defs><path fill="#ffffff" d="M 415.273438 18.5 L 384 36.558594 L 384 0.371094 C 397.375 0.394531 409.042969 7.683594 415.273438 18.5 Z M 415.273438 18.5 " fill-opacity="1" fill-rule="nonzero"/><g clip-path="url(#4dde332aac)"><path stroke-linecap="butt" transform="matrix(0.187188, 0, 0, 0.187188, 337.202031, -10.239191)" fill="none" stroke-linejoin="miter" d="M 417.074558 153.531055 L 250.005004 250.004018 L 250.005004 56.682466 C 321.457184 56.807674 383.790029 95.747443 417.074558 153.531055 Z M 417.074558 153.531055 " stroke="#000000" stroke-width="4" stroke-opacity="1" stroke-miterlimit="10"/></g><g clip-path="url(#ae10942bc6)"><path fill="#ffffff" d="M 420.066406 36.496094 C 420.066406 43.089844 418.304688 49.265625 415.21875 54.585938 L 384 36.558594 L 415.273438 18.5 C 418.320312 23.800781 420.066406 29.945312 420.066406 36.496094 Z M 420.066406 36.496094 " fill-opacity="1" fill-rule="nonzero"/></g><g clip-path="url(#7aed8634ab)"><path stroke-linecap="butt" transform="matrix(0.187188, 0, 0, 0.187188, 337.202031, -10.239191)" fill="none" stroke-linejoin="miter" d="M 442.679647 249.67013 C 442.679647 284.895387 433.268159 317.887763 416.782405 346.310038 L 250.005004 250.004018 L 417.074558 153.531055 C 433.351631 181.848989 442.679647 214.674421 442.679647 249.67013 Z M 442.679647 249.67013 " stroke="#000000" stroke-width="4" stroke-opacity="1" stroke-miterlimit="10"/></g><path fill="#ffffff" d="M 415.21875 54.585938 C 408.980469 65.351562 397.335938 72.601562 384 72.625 L 384 36.558594 Z M 415.21875 54.585938 " fill-opacity="1" fill-rule="nonzero"/><g clip-path="url(#dc92ddd4bb)"><path stroke-linecap="butt" transform="matrix(0.187188, 0, 0, 0.187188, 337.202031, -10.239191)" fill="none" stroke-linejoin="miter" d="M 416.782405 346.310038 C 383.45614 403.822365 321.248503 442.553453 250.005004 442.678661 L 250.005004 250.004018 Z M 416.782405 346.310038 " stroke="#000000" stroke-width="4" stroke-opacity="1" stroke-miterlimit="10"/></g><path fill="#f33969" d="M 384 36.558594 L 384 72.625 L 383.9375 72.625 C 370.597656 72.625 358.945312 65.390625 352.6875 54.632812 Z M 384 36.558594 " fill-opacity="1" fill-rule="nonzero"/><g clip-path="url(#5adc1a6bc2)"><path stroke-linecap="butt" transform="matrix(0.187188, 0, 0, 0.187188, 337.202031, -10.239191)" fill="none" stroke-linejoin="miter" d="M 250.005004 250.004018 L 250.005004 442.678661 L 249.671115 442.678661 C 178.406747 442.678661 116.157374 404.031045 82.726769 346.560454 Z M 250.005004 250.004018 " stroke="#000000" stroke-width="4" stroke-opacity="1" stroke-miterlimit="10"/></g><g clip-path="url(#6c75a8b73f)"><path fill="#f33969" d="M 384 36.558594 L 352.6875 54.632812 C 349.585938 49.304688 347.8125 43.109375 347.8125 36.496094 C 347.8125 29.886719 349.566406 23.761719 352.636719 18.449219 Z M 384 36.558594 " fill-opacity="1" fill-rule="nonzero"/></g><g clip-path="url(#350b7f5d38)"><path stroke-linecap="butt" transform="matrix(0.187188, 0, 0, 0.187188, 337.202031, -10.239191)" fill="none" stroke-linejoin="miter" d="M 250.005004 250.004018 L 82.726769 346.560454 C 66.157543 318.096443 56.683451 284.999727 56.683451 249.67013 C 56.683451 214.3614 66.053203 181.640309 82.455485 153.25977 Z M 250.005004 250.004018 " stroke="#000000" stroke-width="4" stroke-opacity="1" stroke-miterlimit="10"/></g><path fill="#f33969" d="M 384 0.371094 L 384 36.558594 L 352.636719 18.449219 C 358.878906 7.644531 370.5625 0.371094 383.9375 0.371094 Z M 384 0.371094 " fill-opacity="1" fill-rule="nonzero"/><g clip-path="url(#129cecea81)"><path stroke-linecap="butt" transform="matrix(0.187188, 0, 0, 0.187188, 337.202031, -10.239191)" fill="none" stroke-linejoin="miter" d="M 250.005004 56.682466 L 250.005004 250.004018 L 82.455485 153.25977 C 115.802618 95.538762 178.218935 56.682466 249.671115 56.682466 Z M 250.005004 56.682466 " stroke="#000000" stroke-width="4" stroke-opacity="1" stroke-miterlimit="10"/></g><path fill="#4e2804" d="M 326.132812 28.839844 L 319.722656 24.566406 C 319.386719 24.34375 319.296875 23.890625 319.519531 23.558594 C 319.742188 23.222656 320.195312 23.132812 320.53125 23.355469 L 329.847656 29.566406 L 320.53125 35.777344 C 320.195312 36.003906 319.742188 35.910156 319.519531 35.578125 C 319.296875 35.242188 319.386719 34.789062 319.722656 34.566406 C 319.722656 34.566406 324.050781 31.683594 326.132812 30.296875 L 265.820312 30.296875 C 265.417969 30.296875 265.09375 29.96875 265.09375 29.566406 C 265.09375 29.164062 265.417969 28.839844 265.820312 28.839844 Z M 326.132812 28.839844 " fill-opacity="1" fill-rule="evenodd"/><g fill="#000000" fill-opacity="1"><g transform="translate(10.051351, 29.679209)"><g><path d="M 8.140625 -13.015625 C 6.585938 -13.015625 5.367188 -12.492188 4.484375 -11.453125 C 3.597656 -10.421875 3.15625 -9.003906 3.15625 -7.203125 C 3.15625 -5.410156 3.566406 -3.992188 4.390625 -2.953125 C 5.210938 -1.910156 6.453125 -1.390625 8.109375 -1.390625 C 8.734375 -1.390625 9.328125 -1.441406 9.890625 -1.546875 C 10.453125 -1.660156 11.007812 -1.796875 11.5625 -1.953125 L 11.5625 -0.390625 C 11.03125 -0.179688 10.476562 -0.03125 9.90625 0.0625 C 9.332031 0.15625 8.648438 0.203125 7.859375 0.203125 C 6.390625 0.203125 5.160156 -0.0976562 4.171875 -0.703125 C 3.191406 -1.304688 2.457031 -2.164062 1.96875 -3.28125 C 1.476562 -4.40625 1.234375 -5.722656 1.234375 -7.234375 C 1.234375 -8.679688 1.5 -9.957031 2.03125 -11.0625 C 2.5625 -12.175781 3.34375 -13.046875 4.375 -13.671875 C 5.414062 -14.296875 6.675781 -14.609375 8.15625 -14.609375 C 9.675781 -14.609375 11 -14.328125 12.125 -13.765625 L 11.40625 -12.234375 C 10.957031 -12.429688 10.460938 -12.609375 9.921875 -12.765625 C 9.378906 -12.929688 8.785156 -13.015625 8.140625 -13.015625 Z M 8.140625 -13.015625 "/></g></g></g><g fill="#000000" fill-opacity="1"><g transform="translate(22.814377, 29.679209)"><g><path d="M 11.125 -5.4375 C 11.125 -3.644531 10.664062 -2.253906 9.75 -1.265625 C 8.84375 -0.285156 7.617188 0.203125 6.078125 0.203125 C 5.117188 0.203125 4.265625 -0.015625 3.515625 -0.453125 C 2.773438 -0.890625 2.1875 -1.53125 1.75 -2.375 C 1.320312 -3.21875 1.109375 -4.238281 1.109375 -5.4375 C 1.109375 -7.21875 1.554688 -8.59375 2.453125 -9.5625 C 3.347656 -10.53125 4.578125 -11.015625 6.140625 -11.015625 C 7.109375 -11.015625 7.96875 -10.796875 8.71875 -10.359375 C 9.46875 -9.921875 10.054688 -9.289062 10.484375 -8.46875 C 10.910156 -7.644531 11.125 -6.632812 11.125 -5.4375 Z M 2.953125 -5.4375 C 2.953125 -4.15625 3.203125 -3.140625 3.703125 -2.390625 C 4.210938 -1.640625 5.015625 -1.265625 6.109375 -1.265625 C 7.203125 -1.265625 8.003906 -1.640625 8.515625 -2.390625 C 9.023438 -3.140625 9.28125 -4.15625 9.28125 -5.4375 C 9.28125 -6.707031 9.023438 -7.707031 8.515625 -8.4375 C 8.003906 -9.164062 7.195312 -9.53125 6.09375 -9.53125 C 4.988281 -9.53125 4.1875 -9.164062 3.6875 -8.4375 C 3.195312 -7.707031 2.953125 -6.707031 2.953125 -5.4375 Z M 2.953125 -5.4375 "/></g></g></g><g fill="#000000" fill-opacity="1"><g transform="translate(35.03215, 29.679209)"><g><path d="M 6.921875 -11.015625 C 8.210938 -11.015625 9.1875 -10.695312 9.84375 -10.0625 C 10.507812 -9.4375 10.84375 -8.429688 10.84375 -7.046875 L 10.84375 0 L 9.078125 0 L 9.078125 -6.921875 C 9.078125 -8.660156 8.269531 -9.53125 6.65625 -9.53125 C 5.457031 -9.53125 4.628906 -9.191406 4.171875 -8.515625 C 3.722656 -7.847656 3.5 -6.878906 3.5 -5.609375 L 3.5 0 L 1.71875 0 L 1.71875 -10.828125 L 3.15625 -10.828125 L 3.40625 -9.34375 L 3.515625 -9.34375 C 3.859375 -9.90625 4.335938 -10.320312 4.953125 -10.59375 C 5.578125 -10.875 6.234375 -11.015625 6.921875 -11.015625 Z M 6.921875 -11.015625 "/></g></g></g><g fill="#000000" fill-opacity="1"><g transform="translate(47.512449, 29.679209)"><g><path d="M 5.328125 -1.25 C 5.597656 -1.25 5.875 -1.269531 6.15625 -1.3125 C 6.4375 -1.351562 6.664062 -1.40625 6.84375 -1.46875 L 6.84375 -0.125 C 6.65625 -0.03125 6.382812 0.046875 6.03125 0.109375 C 5.6875 0.171875 5.351562 0.203125 5.03125 0.203125 C 4.457031 0.203125 3.929688 0.101562 3.453125 -0.09375 C 2.984375 -0.289062 2.597656 -0.628906 2.296875 -1.109375 C 2.003906 -1.597656 1.859375 -2.28125 1.859375 -3.15625 L 1.859375 -9.453125 L 0.328125 -9.453125 L 0.328125 -10.296875 L 1.875 -11 L 2.578125 -13.296875 L 3.640625 -13.296875 L 3.640625 -10.828125 L 6.765625 -10.828125 L 6.765625 -9.453125 L 3.640625 -9.453125 L 3.640625 -3.1875 C 3.640625 -2.53125 3.796875 -2.039062 4.109375 -1.71875 C 4.421875 -1.40625 4.828125 -1.25 5.328125 -1.25 Z M 5.328125 -1.25 "/></g></g></g><g fill="#000000" fill-opacity="1"><g transform="translate(54.802718, 29.679209)"><g><path d="M 11.125 -5.4375 C 11.125 -3.644531 10.664062 -2.253906 9.75 -1.265625 C 8.84375 -0.285156 7.617188 0.203125 6.078125 0.203125 C 5.117188 0.203125 4.265625 -0.015625 3.515625 -0.453125 C 2.773438 -0.890625 2.1875 -1.53125 1.75 -2.375 C 1.320312 -3.21875 1.109375 -4.238281 1.109375 -5.4375 C 1.109375 -7.21875 1.554688 -8.59375 2.453125 -9.5625 C 3.347656 -10.53125 4.578125 -11.015625 6.140625 -11.015625 C 7.109375 -11.015625 7.96875 -10.796875 8.71875 -10.359375 C 9.46875 -9.921875 10.054688 -9.289062 10.484375 -8.46875 C 10.910156 -7.644531 11.125 -6.632812 11.125 -5.4375 Z M 2.953125 -5.4375 C 2.953125 -4.15625 3.203125 -3.140625 3.703125 -2.390625 C 4.210938 -1.640625 5.015625 -1.265625 6.109375 -1.265625 C 7.203125 -1.265625 8.003906 -1.640625 8.515625 -2.390625 C 9.023438 -3.140625 9.28125 -4.15625 9.28125 -5.4375 C 9.28125 -6.707031 9.023438 -7.707031 8.515625 -8.4375 C 8.003906 -9.164062 7.195312 -9.53125 6.09375 -9.53125 C 4.988281 -9.53125 4.1875 -9.164062 3.6875 -8.4375 C 3.195312 -7.707031 2.953125 -6.707031 2.953125 -5.4375 Z M 2.953125 -5.4375 "/></g></g></g><g fill="#000000" fill-opacity="1"><g transform="translate(67.020491, 29.679209)"><g><path d="M 3.5 -15.34375 L 3.5 -10.84375 C 3.5 -10.300781 3.460938 -9.796875 3.390625 -9.328125 L 3.515625 -9.328125 C 3.859375 -9.878906 4.328125 -10.296875 4.921875 -10.578125 C 5.523438 -10.859375 6.179688 -11 6.890625 -11 C 8.191406 -11 9.175781 -10.6875 9.84375 -10.0625 C 10.507812 -9.4375 10.84375 -8.429688 10.84375 -7.046875 L 10.84375 0 L 9.078125 0 L 9.078125 -6.921875 C 9.078125 -8.660156 8.269531 -9.53125 6.65625 -9.53125 C 5.445312 -9.53125 4.617188 -9.1875 4.171875 -8.5 C 3.722656 -7.820312 3.5 -6.851562 3.5 -5.59375 L 3.5 0 L 1.71875 0 L 1.71875 -15.34375 Z M 3.5 -15.34375 "/></g></g></g><g fill="#000000" fill-opacity="1"><g transform="translate(79.500791, 29.679209)"><g><path d="M 4.65625 -9.109375 C 4.65625 -8.785156 4.550781 -8.5 4.34375 -8.25 C 4.132812 -8 3.878906 -7.875 3.578125 -7.875 C 3.253906 -7.875 2.988281 -7.992188 2.78125 -8.234375 C 2.570312 -8.472656 2.46875 -8.765625 2.46875 -9.109375 C 2.46875 -9.429688 2.570312 -9.703125 2.78125 -9.921875 C 2.988281 -10.140625 3.253906 -10.25 3.578125 -10.25 C 3.878906 -10.25 4.132812 -10.132812 4.34375 -9.90625 C 4.550781 -9.675781 4.65625 -9.410156 4.65625 -9.109375 Z M 4.65625 -1.4375 C 4.65625 -1.132812 4.546875 -0.863281 4.328125 -0.625 C 4.117188 -0.382812 3.867188 -0.265625 3.578125 -0.265625 C 3.234375 -0.265625 2.960938 -0.378906 2.765625 -0.609375 C 2.566406 -0.835938 2.46875 -1.113281 2.46875 -1.4375 C 2.46875 -1.769531 2.570312 -2.046875 2.78125 -2.265625 C 2.988281 -2.492188 3.253906 -2.609375 3.578125 -2.609375 C 3.878906 -2.609375 4.132812 -2.492188 4.34375 -2.265625 C 4.550781 -2.035156 4.65625 -1.757812 4.65625 -1.4375 Z M 4.65625 -1.4375 "/></g></g></g><g fill="#000000" fill-opacity="1"><g transform="translate(86.872502, 29.679209)"><g/></g></g><g fill="#000000" fill-opacity="1"><g transform="translate(92.829927, 29.679209)"><g/></g></g><path fill="#000000" d="M 98.792969 31.167969 L 110.347656 31.167969 L 110.347656 32.660156 L 98.792969 32.660156 Z M 98.792969 31.167969 " fill-opacity="1" fill-rule="nonzero"/><g fill="#000000" fill-opacity="1"><g transform="translate(98.79142, 29.679209)"><g><path d="M 5.546875 -8.84375 C 7.015625 -8.84375 8.1875 -8.472656 9.0625 -7.734375 C 9.945312 -6.992188 10.390625 -5.953125 10.390625 -4.609375 C 10.390625 -3.109375 9.914062 -1.929688 8.96875 -1.078125 C 8.019531 -0.222656 6.695312 0.203125 5 0.203125 C 4.25 0.203125 3.550781 0.132812 2.90625 0 C 2.257812 -0.132812 1.710938 -0.328125 1.265625 -0.578125 L 1.265625 -2.265625 C 1.753906 -1.960938 2.34375 -1.726562 3.03125 -1.5625 C 3.726562 -1.394531 4.394531 -1.3125 5.03125 -1.3125 C 6.09375 -1.3125 6.945312 -1.5625 7.59375 -2.0625 C 8.25 -2.570312 8.578125 -3.359375 8.578125 -4.421875 C 8.578125 -5.359375 8.285156 -6.078125 7.703125 -6.578125 C 7.128906 -7.085938 6.21875 -7.34375 4.96875 -7.34375 C 4.59375 -7.34375 4.160156 -7.304688 3.671875 -7.234375 C 3.191406 -7.171875 2.800781 -7.109375 2.5 -7.046875 L 1.609375 -7.609375 L 2.15625 -14.40625 L 9.390625 -14.40625 L 9.390625 -12.796875 L 3.671875 -12.796875 L 3.328125 -8.625 C 3.554688 -8.664062 3.863281 -8.710938 4.25 -8.765625 C 4.644531 -8.816406 5.078125 -8.84375 5.546875 -8.84375 Z M 5.546875 -8.84375 "/></g></g></g><g fill="#000000" fill-opacity="1"><g transform="translate(110.349512, 29.679209)"><g/></g></g><g fill="#000000" fill-opacity="1"><g transform="translate(116.306936, 29.679209)"><g><path d="M 7.625 -5.09375 C 7.625 -4.632812 7.332031 -4.40625 6.75 -4.40625 L 2.140625 -4.40625 C 1.941406 -4.40625 1.773438 -4.46875 1.640625 -4.59375 C 1.515625 -4.71875 1.453125 -4.882812 1.453125 -5.09375 C 1.453125 -5.28125 1.515625 -5.4375 1.640625 -5.5625 C 1.773438 -5.6875 1.941406 -5.75 2.140625 -5.75 L 6.84375 -5.75 C 7.039062 -5.75 7.21875 -5.679688 7.375 -5.546875 C 7.539062 -5.410156 7.625 -5.257812 7.625 -5.09375 Z M 7.625 -5.09375 "/></g></g></g><g fill="#000000" fill-opacity="1"><g transform="translate(125.192587, 29.679209)"><g/></g></g><path fill="#000000" d="M 131.160156 31.167969 L 142.71875 31.167969 L 142.71875 32.660156 L 131.160156 32.660156 Z M 131.160156 31.167969 " fill-opacity="1" fill-rule="nonzero"/><g fill="#000000" fill-opacity="1"><g transform="translate(131.16106, 29.679209)"><g><path d="M 7.171875 0 L 5.4375 0 L 5.4375 -10.078125 C 5.4375 -10.648438 5.441406 -11.109375 5.453125 -11.453125 C 5.460938 -11.804688 5.484375 -12.175781 5.515625 -12.5625 C 5.296875 -12.34375 5.09375 -12.160156 4.90625 -12.015625 C 4.726562 -11.867188 4.515625 -11.679688 4.265625 -11.453125 L 2.71875 -10.1875 L 1.796875 -11.390625 L 5.6875 -14.40625 L 7.171875 -14.40625 Z M 7.171875 0 "/></g></g></g><g fill="#000000" fill-opacity="1"><g transform="translate(142.719151, 29.679209)"><g/></g></g><g fill="#000000" fill-opacity="1"><g transform="translate(148.676576, 29.679209)"><g><path d="M 12.4375 -6.703125 L 1.171875 -6.703125 L 1.171875 -7.53125 L 12.4375 -7.53125 Z M 12.4375 -3.78125 L 1.171875 -3.78125 L 1.171875 -4.609375 L 12.4375 -4.609375 Z M 12.4375 -3.78125 "/></g></g></g><g fill="#000000" fill-opacity="1"><g transform="translate(162.267579, 29.679209)"><g/></g></g><path fill="#000000" d="M 168.234375 31.167969 L 200.230469 31.167969 L 200.230469 32.660156 L 168.234375 32.660156 Z M 168.234375 31.167969 " fill-opacity="1" fill-rule="nonzero"/><g fill="#000000" fill-opacity="1"><g transform="translate(168.233085, 29.679209)"><g><path d="M 5.546875 -8.84375 C 7.015625 -8.84375 8.1875 -8.472656 9.0625 -7.734375 C 9.945312 -6.992188 10.390625 -5.953125 10.390625 -4.609375 C 10.390625 -3.109375 9.914062 -1.929688 8.96875 -1.078125 C 8.019531 -0.222656 6.695312 0.203125 5 0.203125 C 4.25 0.203125 3.550781 0.132812 2.90625 0 C 2.257812 -0.132812 1.710938 -0.328125 1.265625 -0.578125 L 1.265625 -2.265625 C 1.753906 -1.960938 2.34375 -1.726562 3.03125 -1.5625 C 3.726562 -1.394531 4.394531 -1.3125 5.03125 -1.3125 C 6.09375 -1.3125 6.945312 -1.5625 7.59375 -2.0625 C 8.25 -2.570312 8.578125 -3.359375 8.578125 -4.421875 C 8.578125 -5.359375 8.285156 -6.078125 7.703125 -6.578125 C 7.128906 -7.085938 6.21875 -7.34375 4.96875 -7.34375 C 4.59375 -7.34375 4.160156 -7.304688 3.671875 -7.234375 C 3.191406 -7.171875 2.800781 -7.109375 2.5 -7.046875 L 1.609375 -7.609375 L 2.15625 -14.40625 L 9.390625 -14.40625 L 9.390625 -12.796875 L 3.671875 -12.796875 L 3.328125 -8.625 C 3.554688 -8.664062 3.863281 -8.710938 4.25 -8.765625 C 4.644531 -8.816406 5.078125 -8.84375 5.546875 -8.84375 Z M 5.546875 -8.84375 "/></g></g></g><g fill="#000000" fill-opacity="1"><g transform="translate(179.784425, 29.679209)"><g><path d="M 7.625 -5.09375 C 7.625 -4.632812 7.332031 -4.40625 6.75 -4.40625 L 2.140625 -4.40625 C 1.941406 -4.40625 1.773438 -4.46875 1.640625 -4.59375 C 1.515625 -4.71875 1.453125 -4.882812 1.453125 -5.09375 C 1.453125 -5.28125 1.515625 -5.4375 1.640625 -5.5625 C 1.773438 -5.6875 1.941406 -5.75 2.140625 -5.75 L 6.84375 -5.75 C 7.039062 -5.75 7.21875 -5.679688 7.375 -5.546875 C 7.539062 -5.410156 7.625 -5.257812 7.625 -5.09375 Z M 7.625 -5.09375 "/></g></g></g><g fill="#000000" fill-opacity="1"><g transform="translate(188.670076, 29.679209)"><g><path d="M 10.5 0 L 0.96875 0 L 0.96875 -1.46875 L 4.75 -5.296875 C 5.457031 -6.015625 6.0625 -6.65625 6.5625 -7.21875 C 7.070312 -7.789062 7.453125 -8.34375 7.703125 -8.875 C 7.960938 -9.414062 8.09375 -10.015625 8.09375 -10.671875 C 8.09375 -11.472656 7.859375 -12.078125 7.390625 -12.484375 C 6.921875 -12.898438 6.304688 -13.109375 5.546875 -13.109375 C 4.835938 -13.109375 4.21875 -12.984375 3.6875 -12.734375 C 3.164062 -12.492188 2.628906 -12.160156 2.078125 -11.734375 L 1.125 -12.921875 C 1.695312 -13.390625 2.347656 -13.785156 3.078125 -14.109375 C 3.804688 -14.441406 4.628906 -14.609375 5.546875 -14.609375 C 6.898438 -14.609375 7.960938 -14.265625 8.734375 -13.578125 C 9.515625 -12.898438 9.90625 -11.96875 9.90625 -10.78125 C 9.90625 -10.03125 9.75 -9.320312 9.4375 -8.65625 C 9.132812 -8 8.707031 -7.347656 8.15625 -6.703125 C 7.601562 -6.054688 6.957031 -5.375 6.21875 -4.65625 L 3.203125 -1.703125 L 3.203125 -1.609375 L 10.5 -1.609375 Z M 10.5 0 "/></g></g></g><g fill="#000000" fill-opacity="1"><g transform="translate(200.230263, 29.679209)"><g/></g></g><g fill="#000000" fill-opacity="1"><g transform="translate(206.187687, 29.679209)"><g><path d="M 12.4375 -6.703125 L 1.171875 -6.703125 L 1.171875 -7.53125 L 12.4375 -7.53125 Z M 12.4375 -3.78125 L 1.171875 -3.78125 L 1.171875 -4.609375 L 12.4375 -4.609375 Z M 12.4375 -3.78125 "/></g></g></g><g fill="#000000" fill-opacity="1"><g transform="translate(219.778691, 29.679209)"><g/></g></g><path fill="#000000" d="M 225.746094 31.167969 L 237.300781 31.167969 L 237.300781 32.660156 L 225.746094 32.660156 Z M 225.746094 31.167969 " fill-opacity="1" fill-rule="nonzero"/><g fill="#000000" fill-opacity="1"><g transform="translate(225.744196, 29.679209)"><g><path d="M 9.953125 -11.046875 C 9.953125 -10.078125 9.675781 -9.304688 9.125 -8.734375 C 8.582031 -8.160156 7.863281 -7.78125 6.96875 -7.59375 L 6.96875 -7.515625 C 8.113281 -7.378906 8.96875 -7.015625 9.53125 -6.421875 C 10.101562 -5.828125 10.390625 -5.050781 10.390625 -4.09375 C 10.390625 -3.25 10.191406 -2.503906 9.796875 -1.859375 C 9.410156 -1.210938 8.8125 -0.707031 8 -0.34375 C 7.1875 0.0195312 6.140625 0.203125 4.859375 0.203125 C 4.109375 0.203125 3.410156 0.144531 2.765625 0.03125 C 2.117188 -0.0820312 1.5 -0.285156 0.90625 -0.578125 L 0.90625 -2.234375 C 1.507812 -1.929688 2.160156 -1.695312 2.859375 -1.53125 C 3.566406 -1.375 4.242188 -1.296875 4.890625 -1.296875 C 6.179688 -1.296875 7.113281 -1.546875 7.6875 -2.046875 C 8.257812 -2.554688 8.546875 -3.253906 8.546875 -4.140625 C 8.546875 -5.035156 8.191406 -5.679688 7.484375 -6.078125 C 6.773438 -6.484375 5.78125 -6.6875 4.5 -6.6875 L 3.109375 -6.6875 L 3.109375 -8.203125 L 4.515625 -8.203125 C 5.703125 -8.203125 6.601562 -8.445312 7.21875 -8.9375 C 7.832031 -9.4375 8.140625 -10.097656 8.140625 -10.921875 C 8.140625 -11.617188 7.898438 -12.160156 7.421875 -12.546875 C 6.953125 -12.929688 6.316406 -13.125 5.515625 -13.125 C 4.734375 -13.125 4.066406 -13.007812 3.515625 -12.78125 C 2.960938 -12.550781 2.414062 -12.257812 1.875 -11.90625 L 0.984375 -13.125 C 1.492188 -13.53125 2.128906 -13.878906 2.890625 -14.171875 C 3.648438 -14.460938 4.515625 -14.609375 5.484375 -14.609375 C 6.992188 -14.609375 8.113281 -14.269531 8.84375 -13.59375 C 9.582031 -12.925781 9.953125 -12.078125 9.953125 -11.046875 Z M 9.953125 -11.046875 "/></g></g></g><g fill="#000000" fill-opacity="1"><g transform="translate(10.051351, 54.261977)"><g/></g></g><g fill="#000000" fill-opacity="1"><g transform="translate(16.008775, 54.261977)"><g/></g></g><g fill="#000000" fill-opacity="1"><g transform="translate(21.9662, 54.261977)"><g/></g></g><g fill="#000000" fill-opacity="1"><g transform="translate(27.923624, 54.261977)"><g/></g></g><g fill="#000000" fill-opacity="1"><g transform="translate(33.881049, 54.261977)"><g/></g></g><g fill="#000000" fill-opacity="1"><g transform="translate(39.838473, 54.261977)"><g/></g></g><g fill="#000000" fill-opacity="1"><g transform="translate(45.795897, 54.261977)"><g/></g></g><g fill="#000000" fill-opacity="1"><g transform="translate(51.753322, 54.261977)"><g/></g></g><g fill="#000000" fill-opacity="1"><g transform="translate(57.710746, 54.261977)"><g/></g></g><g fill="#000000" fill-opacity="1"><g transform="translate(63.66817, 54.261977)"><g/></g></g><g fill="#000000" fill-opacity="1"><g transform="translate(69.625595, 54.261977)"><g/></g></g><g fill="#000000" fill-opacity="1"><g transform="translate(75.583019, 54.261977)"><g/></g></g><g fill="#000000" fill-opacity="1"><g transform="translate(81.540444, 54.261977)"><g/></g></g><g fill="#000000" fill-opacity="1"><g transform="translate(87.497868, 54.261977)"><g/></g></g><g fill="#000000" fill-opacity="1"><g transform="translate(93.455292, 54.261977)"><g/></g></g><g fill="#000000" fill-opacity="1"><g transform="translate(99.419957, 54.261977)"><g><path d="M 1.109375 -6.15625 C 1.109375 -7.195312 1.195312 -8.21875 1.375 -9.21875 C 1.5625 -10.21875 1.894531 -11.125 2.375 -11.9375 C 2.851562 -12.75 3.519531 -13.394531 4.375 -13.875 C 5.238281 -14.363281 6.351562 -14.609375 7.71875 -14.609375 C 8 -14.609375 8.3125 -14.59375 8.65625 -14.5625 C 9 -14.539062 9.273438 -14.5 9.484375 -14.4375 L 9.484375 -12.921875 C 9.242188 -13.003906 8.96875 -13.0625 8.65625 -13.09375 C 8.351562 -13.132812 8.050781 -13.15625 7.75 -13.15625 C 6.820312 -13.15625 6.046875 -13 5.421875 -12.6875 C 4.804688 -12.382812 4.320312 -11.960938 3.96875 -11.421875 C 3.613281 -10.890625 3.351562 -10.269531 3.1875 -9.5625 C 3.03125 -8.863281 2.929688 -8.117188 2.890625 -7.328125 L 3.015625 -7.328125 C 3.316406 -7.796875 3.742188 -8.195312 4.296875 -8.53125 C 4.847656 -8.863281 5.554688 -9.03125 6.421875 -9.03125 C 7.671875 -9.03125 8.675781 -8.648438 9.4375 -7.890625 C 10.207031 -7.128906 10.59375 -6.046875 10.59375 -4.640625 C 10.59375 -3.128906 10.175781 -1.941406 9.34375 -1.078125 C 8.519531 -0.222656 7.410156 0.203125 6.015625 0.203125 C 5.097656 0.203125 4.269531 -0.0234375 3.53125 -0.484375 C 2.789062 -0.941406 2.203125 -1.640625 1.765625 -2.578125 C 1.328125 -3.523438 1.109375 -4.71875 1.109375 -6.15625 Z M 6 -1.296875 C 6.84375 -1.296875 7.523438 -1.566406 8.046875 -2.109375 C 8.578125 -2.648438 8.84375 -3.492188 8.84375 -4.640625 C 8.84375 -5.554688 8.609375 -6.28125 8.140625 -6.8125 C 7.679688 -7.351562 6.988281 -7.625 6.0625 -7.625 C 5.425781 -7.625 4.867188 -7.492188 4.390625 -7.234375 C 3.921875 -6.972656 3.554688 -6.632812 3.296875 -6.21875 C 3.035156 -5.8125 2.90625 -5.398438 2.90625 -4.984375 C 2.90625 -4.410156 3.019531 -3.835938 3.25 -3.265625 C 3.476562 -2.691406 3.820312 -2.21875 4.28125 -1.84375 C 4.738281 -1.476562 5.3125 -1.296875 6 -1.296875 Z M 6 -1.296875 "/></g></g></g><g fill="#000000" fill-opacity="1"><g transform="translate(110.978048, 54.261977)"><g/></g></g><g fill="#000000" fill-opacity="1"><g transform="translate(116.935473, 54.261977)"><g/></g></g><g fill="#000000" fill-opacity="1"><g transform="translate(122.892897, 54.261977)"><g/></g></g><g fill="#000000" fill-opacity="1"><g transform="translate(128.850322, 54.261977)"><g/></g></g><g fill="#000000" fill-opacity="1"><g transform="translate(134.815885, 54.261977)"><g><path d="M 9.953125 -11.046875 C 9.953125 -10.078125 9.675781 -9.304688 9.125 -8.734375 C 8.582031 -8.160156 7.863281 -7.78125 6.96875 -7.59375 L 6.96875 -7.515625 C 8.113281 -7.378906 8.96875 -7.015625 9.53125 -6.421875 C 10.101562 -5.828125 10.390625 -5.050781 10.390625 -4.09375 C 10.390625 -3.25 10.191406 -2.503906 9.796875 -1.859375 C 9.410156 -1.210938 8.8125 -0.707031 8 -0.34375 C 7.1875 0.0195312 6.140625 0.203125 4.859375 0.203125 C 4.109375 0.203125 3.410156 0.144531 2.765625 0.03125 C 2.117188 -0.0820312 1.5 -0.285156 0.90625 -0.578125 L 0.90625 -2.234375 C 1.507812 -1.929688 2.160156 -1.695312 2.859375 -1.53125 C 3.566406 -1.375 4.242188 -1.296875 4.890625 -1.296875 C 6.179688 -1.296875 7.113281 -1.546875 7.6875 -2.046875 C 8.257812 -2.554688 8.546875 -3.253906 8.546875 -4.140625 C 8.546875 -5.035156 8.191406 -5.679688 7.484375 -6.078125 C 6.773438 -6.484375 5.78125 -6.6875 4.5 -6.6875 L 3.109375 -6.6875 L 3.109375 -8.203125 L 4.515625 -8.203125 C 5.703125 -8.203125 6.601562 -8.445312 7.21875 -8.9375 C 7.832031 -9.4375 8.140625 -10.097656 8.140625 -10.921875 C 8.140625 -11.617188 7.898438 -12.160156 7.421875 -12.546875 C 6.953125 -12.929688 6.316406 -13.125 5.515625 -13.125 C 4.734375 -13.125 4.066406 -13.007812 3.515625 -12.78125 C 2.960938 -12.550781 2.414062 -12.257812 1.875 -11.90625 L 0.984375 -13.125 C 1.492188 -13.53125 2.128906 -13.878906 2.890625 -14.171875 C 3.648438 -14.460938 4.515625 -14.609375 5.484375 -14.609375 C 6.992188 -14.609375 8.113281 -14.269531 8.84375 -13.59375 C 9.582031 -12.925781 9.953125 -12.078125 9.953125 -11.046875 Z M 9.953125 -11.046875 "/></g></g></g><g fill="#000000" fill-opacity="1"><g transform="translate(146.373976, 54.261977)"><g/></g></g><g fill="#000000" fill-opacity="1"><g transform="translate(152.3314, 54.261977)"><g/></g></g><g fill="#000000" fill-opacity="1"><g transform="translate(158.288825, 54.261977)"><g/></g></g><g fill="#000000" fill-opacity="1"><g transform="translate(164.246249, 54.261977)"><g/></g></g><g fill="#000000" fill-opacity="1"><g transform="translate(170.203673, 54.261977)"><g/></g></g><g fill="#000000" fill-opacity="1"><g transform="translate(176.161098, 54.261977)"><g/></g></g><g fill="#000000" fill-opacity="1"><g transform="translate(182.119094, 54.261977)"><g><path d="M 1.109375 -6.15625 C 1.109375 -7.195312 1.195312 -8.21875 1.375 -9.21875 C 1.5625 -10.21875 1.894531 -11.125 2.375 -11.9375 C 2.851562 -12.75 3.519531 -13.394531 4.375 -13.875 C 5.238281 -14.363281 6.351562 -14.609375 7.71875 -14.609375 C 8 -14.609375 8.3125 -14.59375 8.65625 -14.5625 C 9 -14.539062 9.273438 -14.5 9.484375 -14.4375 L 9.484375 -12.921875 C 9.242188 -13.003906 8.96875 -13.0625 8.65625 -13.09375 C 8.351562 -13.132812 8.050781 -13.15625 7.75 -13.15625 C 6.820312 -13.15625 6.046875 -13 5.421875 -12.6875 C 4.804688 -12.382812 4.320312 -11.960938 3.96875 -11.421875 C 3.613281 -10.890625 3.351562 -10.269531 3.1875 -9.5625 C 3.03125 -8.863281 2.929688 -8.117188 2.890625 -7.328125 L 3.015625 -7.328125 C 3.316406 -7.796875 3.742188 -8.195312 4.296875 -8.53125 C 4.847656 -8.863281 5.554688 -9.03125 6.421875 -9.03125 C 7.671875 -9.03125 8.675781 -8.648438 9.4375 -7.890625 C 10.207031 -7.128906 10.59375 -6.046875 10.59375 -4.640625 C 10.59375 -3.128906 10.175781 -1.941406 9.34375 -1.078125 C 8.519531 -0.222656 7.410156 0.203125 6.015625 0.203125 C 5.097656 0.203125 4.269531 -0.0234375 3.53125 -0.484375 C 2.789062 -0.941406 2.203125 -1.640625 1.765625 -2.578125 C 1.328125 -3.523438 1.109375 -4.71875 1.109375 -6.15625 Z M 6 -1.296875 C 6.84375 -1.296875 7.523438 -1.566406 8.046875 -2.109375 C 8.578125 -2.648438 8.84375 -3.492188 8.84375 -4.640625 C 8.84375 -5.554688 8.609375 -6.28125 8.140625 -6.8125 C 7.679688 -7.351562 6.988281 -7.625 6.0625 -7.625 C 5.425781 -7.625 4.867188 -7.492188 4.390625 -7.234375 C 3.921875 -6.972656 3.554688 -6.632812 3.296875 -6.21875 C 3.035156 -5.8125 2.90625 -5.398438 2.90625 -4.984375 C 2.90625 -4.410156 3.019531 -3.835938 3.25 -3.265625 C 3.476562 -2.691406 3.820312 -2.21875 4.28125 -1.84375 C 4.738281 -1.476562 5.3125 -1.296875 6 -1.296875 Z M 6 -1.296875 "/></g></g></g><g fill="#000000" fill-opacity="1"><g transform="translate(193.677182, 54.261977)"><g/></g></g><g fill="#000000" fill-opacity="1"><g transform="translate(199.634606, 54.261977)"><g/></g></g><g fill="#000000" fill-opacity="1"><g transform="translate(205.592031, 54.261977)"><g/></g></g><g fill="#000000" fill-opacity="1"><g transform="translate(211.549455, 54.261977)"><g/></g></g><g fill="#000000" fill-opacity="1"><g transform="translate(217.506879, 54.261977)"><g/></g></g><g fill="#000000" fill-opacity="1"><g transform="translate(223.464304, 54.261977)"><g/></g></g><g fill="#000000" fill-opacity="1"><g transform="translate(229.4223, 54.261977)"><g><path d="M 1.109375 -6.15625 C 1.109375 -7.195312 1.195312 -8.21875 1.375 -9.21875 C 1.5625 -10.21875 1.894531 -11.125 2.375 -11.9375 C 2.851562 -12.75 3.519531 -13.394531 4.375 -13.875 C 5.238281 -14.363281 6.351562 -14.609375 7.71875 -14.609375 C 8 -14.609375 8.3125 -14.59375 8.65625 -14.5625 C 9 -14.539062 9.273438 -14.5 9.484375 -14.4375 L 9.484375 -12.921875 C 9.242188 -13.003906 8.96875 -13.0625 8.65625 -13.09375 C 8.351562 -13.132812 8.050781 -13.15625 7.75 -13.15625 C 6.820312 -13.15625 6.046875 -13 5.421875 -12.6875 C 4.804688 -12.382812 4.320312 -11.960938 3.96875 -11.421875 C 3.613281 -10.890625 3.351562 -10.269531 3.1875 -9.5625 C 3.03125 -8.863281 2.929688 -8.117188 2.890625 -7.328125 L 3.015625 -7.328125 C 3.316406 -7.796875 3.742188 -8.195312 4.296875 -8.53125 C 4.847656 -8.863281 5.554688 -9.03125 6.421875 -9.03125 C 7.671875 -9.03125 8.675781 -8.648438 9.4375 -7.890625 C 10.207031 -7.128906 10.59375 -6.046875 10.59375 -4.640625 C 10.59375 -3.128906 10.175781 -1.941406 9.34375 -1.078125 C 8.519531 -0.222656 7.410156 0.203125 6.015625 0.203125 C 5.097656 0.203125 4.269531 -0.0234375 3.53125 -0.484375 C 2.789062 -0.941406 2.203125 -1.640625 1.765625 -2.578125 C 1.328125 -3.523438 1.109375 -4.71875 1.109375 -6.15625 Z M 6 -1.296875 C 6.84375 -1.296875 7.523438 -1.566406 8.046875 -2.109375 C 8.578125 -2.648438 8.84375 -3.492188 8.84375 -4.640625 C 8.84375 -5.554688 8.609375 -6.28125 8.140625 -6.8125 C 7.679688 -7.351562 6.988281 -7.625 6.0625 -7.625 C 5.425781 -7.625 4.867188 -7.492188 4.390625 -7.234375 C 3.921875 -6.972656 3.554688 -6.632812 3.296875 -6.21875 C 3.035156 -5.8125 2.90625 -5.398438 2.90625 -4.984375 C 2.90625 -4.410156 3.019531 -3.835938 3.25 -3.265625 C 3.476562 -2.691406 3.820312 -2.21875 4.28125 -1.84375 C 4.738281 -1.476562 5.3125 -1.296875 6 -1.296875 Z M 6 -1.296875 "/></g></g></g></svg>