<svg xmlns="http://www.w3.org/2000/svg" xmlns:xlink="http://www.w3.org/1999/xlink" width="624" zoomAndPan="magnify" viewBox="0 0 468 80.999996" height="108" preserveAspectRatio="xMidYMid meet" version="1.0"><defs><g/><clipPath id="b552bb7aea"><path d="M 282 34 L 347.769531 34 L 347.769531 48 L 282 48 Z M 282 34 " clip-rule="nonzero"/></clipPath><clipPath id="8204081656"><path d="M 386.648438 0 L 467.648438 0 L 467.648438 81 L 386.648438 81 Z M 386.648438 0 " clip-rule="nonzero"/></clipPath><clipPath id="4fe33927e3"><path d="M 386.648438 0 L 467.648438 0 L 467.648438 81 L 386.648438 81 Z M 386.648438 0 " clip-rule="nonzero"/></clipPath></defs><g clip-path="url(#b552bb7aea)"><path fill="#4e2804" d="M 343.496094 40.625 L 337.042969 36.320312 C 336.707031 36.097656 336.617188 35.640625 336.839844 35.304688 C 337.066406 34.96875 337.519531 34.878906 337.855469 35.101562 L 347.238281 41.355469 L 337.855469 47.609375 C 337.519531 47.835938 337.066406 47.746094 336.839844 47.40625 C 336.617188 47.070312 336.707031 46.617188 337.042969 46.390625 C 337.042969 46.390625 341.402344 43.484375 343.496094 42.089844 L 282.777344 42.089844 C 282.371094 42.089844 282.042969 41.761719 282.042969 41.355469 C 282.042969 40.953125 282.371094 40.625 282.777344 40.625 Z M 343.496094 40.625 " fill-opacity="1" fill-rule="evenodd"/></g><g clip-path="url(#8204081656)"><path fill="#ffffff" d="M 467.246094 40.433594 C 467.246094 62.617188 449.257812 80.605469 427.074219 80.605469 C 404.890625 80.605469 386.902344 62.617188 386.902344 40.433594 C 386.902344 18.25 404.890625 0.261719 427.074219 0.261719 C 449.257812 0.261719 467.246094 18.25 467.246094 40.433594 Z M 467.246094 40.433594 " fill-opacity="1" fill-rule="nonzero"/></g><path fill="#d88000" d="M 465.9375 49.644531 C 464.261719 56.792969 460.636719 63.339844 455.316406 68.65625 C 452.144531 71.828125 448.519531 74.398438 444.609375 76.328125 L 427.527344 40.886719 Z M 466.996094 40.433594 C 466.996094 43.402344 466.675781 46.324219 466.039062 49.160156 L 427.628906 40.398438 L 458.488281 15.800781 C 464.007812 22.796875 466.996094 31.386719 466.996094 40.433594 Z M 458.1875 15.394531 L 427.328125 39.996094 L 427.328125 0.511719 C 437.898438 0.578125 447.832031 4.722656 455.300781 12.207031 C 456.324219 13.230469 457.28125 14.289062 458.1875 15.394531 Z M 426.824219 0.511719 L 426.824219 39.996094 L 395.980469 15.394531 C 396.871094 14.289062 397.824219 13.214844 398.847656 12.207031 C 406.332031 4.722656 416.25 0.578125 426.824219 0.511719 Z M 426.503906 40.398438 L 388.109375 49.160156 C 387.472656 46.324219 387.152344 43.402344 387.152344 40.433594 C 387.152344 31.386719 390.140625 22.796875 395.660156 15.800781 Z M 426.503906 40.398438 " fill-opacity="1" fill-rule="nonzero"/><g clip-path="url(#4fe33927e3)"><path fill="#1d1d1b" d="M 455.667969 11.855469 C 448.035156 4.21875 437.882812 0.0078125 427.074219 0.0078125 C 416.269531 0.0078125 406.132812 4.21875 398.496094 11.855469 C 390.863281 19.492188 386.648438 29.644531 386.648438 40.433594 C 386.648438 51.222656 390.863281 61.375 398.496094 69.027344 C 406.132812 76.664062 416.285156 80.875 427.089844 80.875 C 437.898438 80.875 448.035156 76.664062 455.683594 69.027344 C 463.320312 61.390625 467.53125 51.238281 467.53125 40.433594 C 467.53125 29.625 463.304688 19.492188 455.667969 11.855469 Z M 426.824219 0.511719 L 426.824219 39.996094 L 395.980469 15.394531 C 396.871094 14.289062 397.824219 13.214844 398.847656 12.207031 C 406.332031 4.722656 416.25 0.578125 426.824219 0.511719 Z M 395.660156 15.800781 L 426.503906 40.398438 L 388.109375 49.160156 C 387.472656 46.324219 387.152344 43.402344 387.152344 40.433594 C 387.152344 31.386719 390.140625 22.796875 395.660156 15.800781 Z M 426.621094 40.886719 L 409.554688 76.328125 C 405.628906 74.414062 402.019531 71.828125 398.847656 68.65625 C 393.53125 63.355469 389.90625 56.792969 388.210938 49.644531 Z M 427.074219 41.105469 L 444.140625 76.546875 C 438.871094 79.046875 433.066406 80.355469 427.074219 80.355469 C 421.082031 80.355469 415.277344 79.046875 410.007812 76.546875 Z M 427.328125 0.511719 C 437.898438 0.578125 447.832031 4.722656 455.300781 12.207031 C 456.324219 13.230469 457.28125 14.289062 458.167969 15.394531 L 427.328125 39.996094 Z M 466.996094 40.433594 C 466.996094 43.402344 466.675781 46.324219 466.039062 49.160156 L 427.628906 40.398438 L 458.488281 15.800781 C 464.007812 22.796875 466.996094 31.386719 466.996094 40.433594 Z M 444.59375 76.328125 L 427.527344 40.886719 L 465.9375 49.644531 C 464.261719 56.792969 460.636719 63.339844 455.316406 68.65625 C 452.128906 71.847656 448.519531 74.414062 444.59375 76.328125 Z M 444.59375 76.328125 " fill-opacity="1" fill-rule="nonzero"/></g><g fill="#000000" fill-opacity="1"><g transform="translate(9.493665, 33.503911)"><g><path d="M 8.59375 -13.75 C 6.957031 -13.75 5.671875 -13.203125 4.734375 -12.109375 C 3.796875 -11.015625 3.328125 -9.515625 3.328125 -7.609375 C 3.328125 -5.722656 3.765625 -4.226562 4.640625 -3.125 C 5.515625 -2.019531 6.820312 -1.46875 8.5625 -1.46875 C 9.21875 -1.46875 9.84375 -1.523438 10.4375 -1.640625 C 11.039062 -1.753906 11.632812 -1.894531 12.21875 -2.0625 L 12.21875 -0.40625 C 11.644531 -0.1875 11.054688 -0.03125 10.453125 0.0625 C 9.847656 0.164062 9.128906 0.21875 8.296875 0.21875 C 6.742188 0.21875 5.445312 -0.0976562 4.40625 -0.734375 C 3.375 -1.378906 2.597656 -2.289062 2.078125 -3.46875 C 1.554688 -4.65625 1.296875 -6.039062 1.296875 -7.625 C 1.296875 -9.164062 1.578125 -10.519531 2.140625 -11.6875 C 2.703125 -12.863281 3.53125 -13.78125 4.625 -14.4375 C 5.71875 -15.101562 7.046875 -15.4375 8.609375 -15.4375 C 10.210938 -15.4375 11.613281 -15.132812 12.8125 -14.53125 L 12.046875 -12.921875 C 11.578125 -13.128906 11.050781 -13.316406 10.46875 -13.484375 C 9.894531 -13.660156 9.269531 -13.75 8.59375 -13.75 Z M 8.59375 -13.75 "/></g></g></g><g fill="#000000" fill-opacity="1"><g transform="translate(22.956809, 33.503911)"><g><path d="M 11.75 -5.734375 C 11.75 -3.847656 11.265625 -2.382812 10.296875 -1.34375 C 9.335938 -0.300781 8.046875 0.21875 6.421875 0.21875 C 5.410156 0.21875 4.507812 -0.0078125 3.71875 -0.46875 C 2.925781 -0.9375 2.300781 -1.613281 1.84375 -2.5 C 1.394531 -3.394531 1.171875 -4.472656 1.171875 -5.734375 C 1.171875 -7.617188 1.640625 -9.070312 2.578125 -10.09375 C 3.523438 -11.125 4.828125 -11.640625 6.484375 -11.640625 C 7.503906 -11.640625 8.410156 -11.40625 9.203125 -10.9375 C 10.003906 -10.476562 10.628906 -9.8125 11.078125 -8.9375 C 11.523438 -8.0625 11.75 -6.992188 11.75 -5.734375 Z M 3.109375 -5.734375 C 3.109375 -4.378906 3.375 -3.304688 3.90625 -2.515625 C 4.4375 -1.734375 5.285156 -1.34375 6.453125 -1.34375 C 7.609375 -1.34375 8.453125 -1.734375 8.984375 -2.515625 C 9.523438 -3.304688 9.796875 -4.378906 9.796875 -5.734375 C 9.796875 -7.078125 9.523438 -8.132812 8.984375 -8.90625 C 8.453125 -9.675781 7.601562 -10.0625 6.4375 -10.0625 C 5.269531 -10.0625 4.421875 -9.675781 3.890625 -8.90625 C 3.367188 -8.132812 3.109375 -7.078125 3.109375 -5.734375 Z M 3.109375 -5.734375 "/></g></g></g><g fill="#000000" fill-opacity="1"><g transform="translate(35.84479, 33.503911)"><g><path d="M 7.3125 -11.640625 C 8.675781 -11.640625 9.703125 -11.304688 10.390625 -10.640625 C 11.085938 -9.972656 11.4375 -8.90625 11.4375 -7.4375 L 11.4375 0 L 9.59375 0 L 9.59375 -7.3125 C 9.59375 -9.144531 8.738281 -10.0625 7.03125 -10.0625 C 5.769531 -10.0625 4.894531 -9.703125 4.40625 -8.984375 C 3.925781 -8.273438 3.6875 -7.253906 3.6875 -5.921875 L 3.6875 0 L 1.8125 0 L 1.8125 -11.421875 L 3.328125 -11.421875 L 3.609375 -9.875 L 3.703125 -9.875 C 4.078125 -10.46875 4.585938 -10.910156 5.234375 -11.203125 C 5.890625 -11.492188 6.582031 -11.640625 7.3125 -11.640625 Z M 7.3125 -11.640625 "/></g></g></g><g fill="#000000" fill-opacity="1"><g transform="translate(49.0097, 33.503911)"><g><path d="M 5.625 -1.328125 C 5.90625 -1.328125 6.195312 -1.347656 6.5 -1.390625 C 6.800781 -1.429688 7.039062 -1.488281 7.21875 -1.5625 L 7.21875 -0.125 C 7.019531 -0.03125 6.734375 0.046875 6.359375 0.109375 C 5.992188 0.179688 5.644531 0.21875 5.3125 0.21875 C 4.707031 0.21875 4.15625 0.113281 3.65625 -0.09375 C 3.15625 -0.300781 2.742188 -0.660156 2.421875 -1.171875 C 2.109375 -1.679688 1.953125 -2.398438 1.953125 -3.328125 L 1.953125 -9.96875 L 0.34375 -9.96875 L 0.34375 -10.875 L 1.984375 -11.609375 L 2.734375 -14.046875 L 3.84375 -14.046875 L 3.84375 -11.421875 L 7.140625 -11.421875 L 7.140625 -9.96875 L 3.84375 -9.96875 L 3.84375 -3.375 C 3.84375 -2.675781 4.007812 -2.160156 4.34375 -1.828125 C 4.675781 -1.492188 5.101562 -1.328125 5.625 -1.328125 Z M 5.625 -1.328125 "/></g></g></g><g fill="#000000" fill-opacity="1"><g transform="translate(56.699881, 33.503911)"><g><path d="M 11.75 -5.734375 C 11.75 -3.847656 11.265625 -2.382812 10.296875 -1.34375 C 9.335938 -0.300781 8.046875 0.21875 6.421875 0.21875 C 5.410156 0.21875 4.507812 -0.0078125 3.71875 -0.46875 C 2.925781 -0.9375 2.300781 -1.613281 1.84375 -2.5 C 1.394531 -3.394531 1.171875 -4.472656 1.171875 -5.734375 C 1.171875 -7.617188 1.640625 -9.070312 2.578125 -10.09375 C 3.523438 -11.125 4.828125 -11.640625 6.484375 -11.640625 C 7.503906 -11.640625 8.410156 -11.40625 9.203125 -10.9375 C 10.003906 -10.476562 10.628906 -9.8125 11.078125 -8.9375 C 11.523438 -8.0625 11.75 -6.992188 11.75 -5.734375 Z M 3.109375 -5.734375 C 3.109375 -4.378906 3.375 -3.304688 3.90625 -2.515625 C 4.4375 -1.734375 5.285156 -1.34375 6.453125 -1.34375 C 7.609375 -1.34375 8.453125 -1.734375 8.984375 -2.515625 C 9.523438 -3.304688 9.796875 -4.378906 9.796875 -5.734375 C 9.796875 -7.078125 9.523438 -8.132812 8.984375 -8.90625 C 8.453125 -9.675781 7.601562 -10.0625 6.4375 -10.0625 C 5.269531 -10.0625 4.421875 -9.675781 3.890625 -8.90625 C 3.367188 -8.132812 3.109375 -7.078125 3.109375 -5.734375 Z M 3.109375 -5.734375 "/></g></g></g><g fill="#000000" fill-opacity="1"><g transform="translate(69.587861, 33.503911)"><g><path d="M 3.6875 -16.203125 L 3.6875 -11.4375 C 3.6875 -10.875 3.648438 -10.34375 3.578125 -9.84375 L 3.703125 -9.84375 C 4.078125 -10.425781 4.578125 -10.863281 5.203125 -11.15625 C 5.835938 -11.457031 6.523438 -11.609375 7.265625 -11.609375 C 8.640625 -11.609375 9.675781 -11.28125 10.375 -10.625 C 11.082031 -9.96875 11.4375 -8.90625 11.4375 -7.4375 L 11.4375 0 L 9.59375 0 L 9.59375 -7.3125 C 9.59375 -9.144531 8.738281 -10.0625 7.03125 -10.0625 C 5.75 -10.0625 4.867188 -9.703125 4.390625 -8.984375 C 3.921875 -8.265625 3.6875 -7.238281 3.6875 -5.90625 L 3.6875 0 L 1.8125 0 L 1.8125 -16.203125 Z M 3.6875 -16.203125 "/></g></g></g><g fill="#000000" fill-opacity="1"><g transform="translate(82.752772, 33.503911)"><g><path d="M 4.921875 -9.609375 C 4.921875 -9.265625 4.8125 -8.960938 4.59375 -8.703125 C 4.375 -8.441406 4.097656 -8.3125 3.765625 -8.3125 C 3.429688 -8.3125 3.148438 -8.4375 2.921875 -8.6875 C 2.703125 -8.945312 2.59375 -9.253906 2.59375 -9.609375 C 2.59375 -9.953125 2.703125 -10.238281 2.921875 -10.46875 C 3.148438 -10.707031 3.429688 -10.828125 3.765625 -10.828125 C 4.097656 -10.828125 4.375 -10.707031 4.59375 -10.46875 C 4.8125 -10.226562 4.921875 -9.941406 4.921875 -9.609375 Z M 4.921875 -1.515625 C 4.921875 -1.203125 4.804688 -0.914062 4.578125 -0.65625 C 4.347656 -0.40625 4.078125 -0.28125 3.765625 -0.28125 C 3.410156 -0.28125 3.125 -0.398438 2.90625 -0.640625 C 2.695312 -0.878906 2.59375 -1.171875 2.59375 -1.515625 C 2.59375 -1.867188 2.703125 -2.160156 2.921875 -2.390625 C 3.148438 -2.628906 3.429688 -2.75 3.765625 -2.75 C 4.097656 -2.75 4.375 -2.628906 4.59375 -2.390625 C 4.8125 -2.148438 4.921875 -1.859375 4.921875 -1.515625 Z M 4.921875 -1.515625 "/></g></g></g><g fill="#000000" fill-opacity="1"><g transform="translate(90.528168, 33.503911)"><g/></g></g><path fill="#000000" d="M 96.8125 34.765625 L 109.007812 34.765625 L 109.007812 36.660156 L 96.8125 36.660156 Z M 96.8125 34.765625 " fill-opacity="1" fill-rule="nonzero"/><g fill="#000000" fill-opacity="1"><g transform="translate(96.813173, 33.503911)"><g><path d="M 10.5 -11.65625 C 10.5 -10.632812 10.210938 -9.820312 9.640625 -9.21875 C 9.066406 -8.613281 8.304688 -8.210938 7.359375 -8.015625 L 7.359375 -7.921875 C 8.566406 -7.785156 9.46875 -7.40625 10.0625 -6.78125 C 10.664062 -6.15625 10.96875 -5.335938 10.96875 -4.328125 C 10.96875 -3.429688 10.757812 -2.640625 10.34375 -1.953125 C 9.9375 -1.273438 9.300781 -0.742188 8.4375 -0.359375 C 7.582031 0.0234375 6.484375 0.21875 5.140625 0.21875 C 4.335938 0.21875 3.59375 0.15625 2.90625 0.03125 C 2.226562 -0.09375 1.578125 -0.3125 0.953125 -0.625 L 0.953125 -2.359375 C 1.597656 -2.035156 2.289062 -1.785156 3.03125 -1.609375 C 3.769531 -1.441406 4.476562 -1.359375 5.15625 -1.359375 C 6.519531 -1.359375 7.503906 -1.625 8.109375 -2.15625 C 8.710938 -2.695312 9.015625 -3.4375 9.015625 -4.375 C 9.015625 -5.320312 8.640625 -6.003906 7.890625 -6.421875 C 7.148438 -6.835938 6.101562 -7.046875 4.75 -7.046875 L 3.28125 -7.046875 L 3.28125 -8.65625 L 4.78125 -8.65625 C 6.03125 -8.65625 6.976562 -8.914062 7.625 -9.4375 C 8.269531 -9.96875 8.59375 -10.664062 8.59375 -11.53125 C 8.59375 -12.269531 8.34375 -12.84375 7.84375 -13.25 C 7.34375 -13.65625 6.664062 -13.859375 5.8125 -13.859375 C 4.988281 -13.859375 4.285156 -13.734375 3.703125 -13.484375 C 3.117188 -13.242188 2.546875 -12.941406 1.984375 -12.578125 L 1.046875 -13.859375 C 1.585938 -14.285156 2.257812 -14.65625 3.0625 -14.96875 C 3.863281 -15.28125 4.773438 -15.4375 5.796875 -15.4375 C 7.390625 -15.4375 8.570312 -15.078125 9.34375 -14.359375 C 10.113281 -13.648438 10.5 -12.75 10.5 -11.65625 Z M 10.5 -11.65625 "/></g></g></g><g fill="#000000" fill-opacity="1"><g transform="translate(109.007149, 33.503911)"><g/></g></g><g fill="#000000" fill-opacity="1"><g transform="translate(115.291375, 33.503911)"><g><path d="M 13.234375 -5.8125 L 7.796875 -5.8125 L 7.796875 -0.453125 L 6.75 -0.453125 L 6.75 -5.8125 L 1.34375 -5.8125 L 1.34375 -6.84375 L 6.75 -6.84375 L 6.75 -12.21875 L 7.796875 -12.21875 L 7.796875 -6.84375 L 13.234375 -6.84375 Z M 13.234375 -5.8125 "/></g></g></g><g fill="#000000" fill-opacity="1"><g transform="translate(129.627917, 33.503911)"><g/></g></g><path fill="#000000" d="M 135.917969 34.765625 L 148.113281 34.765625 L 148.113281 36.660156 L 135.917969 36.660156 Z M 135.917969 34.765625 " fill-opacity="1" fill-rule="nonzero"/><g fill="#000000" fill-opacity="1"><g transform="translate(135.918673, 33.503911)"><g><path d="M 11.078125 0 L 1.015625 0 L 1.015625 -1.5625 L 5.015625 -5.578125 C 5.765625 -6.347656 6.40625 -7.03125 6.9375 -7.625 C 7.46875 -8.226562 7.867188 -8.8125 8.140625 -9.375 C 8.410156 -9.945312 8.546875 -10.582031 8.546875 -11.28125 C 8.546875 -12.113281 8.296875 -12.742188 7.796875 -13.171875 C 7.296875 -13.609375 6.648438 -13.828125 5.859375 -13.828125 C 5.109375 -13.828125 4.453125 -13.695312 3.890625 -13.4375 C 3.335938 -13.1875 2.769531 -12.832031 2.1875 -12.375 L 1.1875 -13.640625 C 1.789062 -14.140625 2.476562 -14.5625 3.25 -14.90625 C 4.019531 -15.257812 4.890625 -15.4375 5.859375 -15.4375 C 7.273438 -15.4375 8.394531 -15.070312 9.21875 -14.34375 C 10.050781 -13.613281 10.46875 -12.625 10.46875 -11.375 C 10.46875 -10.582031 10.300781 -9.835938 9.96875 -9.140625 C 9.644531 -8.441406 9.191406 -7.75 8.609375 -7.0625 C 8.023438 -6.382812 7.34375 -5.671875 6.5625 -4.921875 L 3.390625 -1.796875 L 3.390625 -1.703125 L 11.078125 -1.703125 Z M 11.078125 0 "/></g></g></g><g fill="#000000" fill-opacity="1"><g transform="translate(148.112645, 33.503911)"><g/></g></g><g fill="#000000" fill-opacity="1"><g transform="translate(154.396871, 33.503911)"><g><path d="M 13.125 -7.078125 L 1.234375 -7.078125 L 1.234375 -7.953125 L 13.125 -7.953125 Z M 13.125 -3.984375 L 1.234375 -3.984375 L 1.234375 -4.859375 L 13.125 -4.859375 Z M 13.125 -3.984375 "/></g></g></g><g fill="#000000" fill-opacity="1"><g transform="translate(168.733414, 33.503911)"><g/></g></g><path fill="#000000" d="M 175.023438 34.765625 L 213.734375 34.765625 L 213.734375 36.660156 L 175.023438 36.660156 Z M 175.023438 34.765625 " fill-opacity="1" fill-rule="nonzero"/><g fill="#000000" fill-opacity="1"><g transform="translate(175.024167, 33.503911)"><g><path d="M 10.5 -11.65625 C 10.5 -10.632812 10.210938 -9.820312 9.640625 -9.21875 C 9.066406 -8.613281 8.304688 -8.210938 7.359375 -8.015625 L 7.359375 -7.921875 C 8.566406 -7.785156 9.46875 -7.40625 10.0625 -6.78125 C 10.664062 -6.15625 10.96875 -5.335938 10.96875 -4.328125 C 10.96875 -3.429688 10.757812 -2.640625 10.34375 -1.953125 C 9.9375 -1.273438 9.300781 -0.742188 8.4375 -0.359375 C 7.582031 0.0234375 6.484375 0.21875 5.140625 0.21875 C 4.335938 0.21875 3.59375 0.15625 2.90625 0.03125 C 2.226562 -0.09375 1.578125 -0.3125 0.953125 -0.625 L 0.953125 -2.359375 C 1.597656 -2.035156 2.289062 -1.785156 3.03125 -1.609375 C 3.769531 -1.441406 4.476562 -1.359375 5.15625 -1.359375 C 6.519531 -1.359375 7.503906 -1.625 8.109375 -2.15625 C 8.710938 -2.695312 9.015625 -3.4375 9.015625 -4.375 C 9.015625 -5.320312 8.640625 -6.003906 7.890625 -6.421875 C 7.148438 -6.835938 6.101562 -7.046875 4.75 -7.046875 L 3.28125 -7.046875 L 3.28125 -8.65625 L 4.78125 -8.65625 C 6.03125 -8.65625 6.976562 -8.914062 7.625 -9.4375 C 8.269531 -9.96875 8.59375 -10.664062 8.59375 -11.53125 C 8.59375 -12.269531 8.34375 -12.84375 7.84375 -13.25 C 7.34375 -13.65625 6.664062 -13.859375 5.8125 -13.859375 C 4.988281 -13.859375 4.285156 -13.734375 3.703125 -13.484375 C 3.117188 -13.242188 2.546875 -12.941406 1.984375 -12.578125 L 1.046875 -13.859375 C 1.585938 -14.285156 2.257812 -14.65625 3.0625 -14.96875 C 3.863281 -15.28125 4.773438 -15.4375 5.796875 -15.4375 C 7.390625 -15.4375 8.570312 -15.078125 9.34375 -14.359375 C 10.113281 -13.648438 10.5 -12.75 10.5 -11.65625 Z M 10.5 -11.65625 "/></g></g></g><g fill="#000000" fill-opacity="1"><g transform="translate(187.20917, 33.503911)"><g><path d="M 13.234375 -5.8125 L 7.796875 -5.8125 L 7.796875 -0.453125 L 6.75 -0.453125 L 6.75 -5.8125 L 1.34375 -5.8125 L 1.34375 -6.84375 L 6.75 -6.84375 L 6.75 -12.21875 L 7.796875 -12.21875 L 7.796875 -6.84375 L 13.234375 -6.84375 Z M 13.234375 -5.8125 "/></g></g></g><g fill="#000000" fill-opacity="1"><g transform="translate(201.545712, 33.503911)"><g><path d="M 11.078125 0 L 1.015625 0 L 1.015625 -1.5625 L 5.015625 -5.578125 C 5.765625 -6.347656 6.40625 -7.03125 6.9375 -7.625 C 7.46875 -8.226562 7.867188 -8.8125 8.140625 -9.375 C 8.410156 -9.945312 8.546875 -10.582031 8.546875 -11.28125 C 8.546875 -12.113281 8.296875 -12.742188 7.796875 -13.171875 C 7.296875 -13.609375 6.648438 -13.828125 5.859375 -13.828125 C 5.109375 -13.828125 4.453125 -13.695312 3.890625 -13.4375 C 3.335938 -13.1875 2.769531 -12.832031 2.1875 -12.375 L 1.1875 -13.640625 C 1.789062 -14.140625 2.476562 -14.5625 3.25 -14.90625 C 4.019531 -15.257812 4.890625 -15.4375 5.859375 -15.4375 C 7.273438 -15.4375 8.394531 -15.070312 9.21875 -14.34375 C 10.050781 -13.613281 10.46875 -12.625 10.46875 -11.375 C 10.46875 -10.582031 10.300781 -9.835938 9.96875 -9.140625 C 9.644531 -8.441406 9.191406 -7.75 8.609375 -7.0625 C 8.023438 -6.382812 7.34375 -5.671875 6.5625 -4.921875 L 3.390625 -1.796875 L 3.390625 -1.703125 L 11.078125 -1.703125 Z M 11.078125 0 "/></g></g></g><g fill="#000000" fill-opacity="1"><g transform="translate(213.735359, 33.503911)"><g/></g></g><g fill="#000000" fill-opacity="1"><g transform="translate(220.019585, 33.503911)"><g><path d="M 13.125 -7.078125 L 1.234375 -7.078125 L 1.234375 -7.953125 L 13.125 -7.953125 Z M 13.125 -3.984375 L 1.234375 -3.984375 L 1.234375 -4.859375 L 13.125 -4.859375 Z M 13.125 -3.984375 "/></g></g></g><g fill="#000000" fill-opacity="1"><g transform="translate(234.356128, 33.503911)"><g/></g></g><path fill="#000000" d="M 240.648438 34.765625 L 252.839844 34.765625 L 252.839844 36.660156 L 240.648438 36.660156 Z M 240.648438 34.765625 " fill-opacity="1" fill-rule="nonzero"/><g fill="#000000" fill-opacity="1"><g transform="translate(240.646881, 33.503911)"><g><path d="M 5.859375 -9.328125 C 7.410156 -9.328125 8.648438 -8.9375 9.578125 -8.15625 C 10.503906 -7.375 10.96875 -6.273438 10.96875 -4.859375 C 10.96875 -3.285156 10.46875 -2.046875 9.46875 -1.140625 C 8.46875 -0.234375 7.070312 0.21875 5.28125 0.21875 C 4.488281 0.21875 3.75 0.144531 3.0625 0 C 2.382812 -0.144531 1.8125 -0.351562 1.34375 -0.625 L 1.34375 -2.390625 C 1.851562 -2.078125 2.472656 -1.832031 3.203125 -1.65625 C 3.941406 -1.476562 4.644531 -1.390625 5.3125 -1.390625 C 6.425781 -1.390625 7.328125 -1.65625 8.015625 -2.1875 C 8.710938 -2.71875 9.0625 -3.546875 9.0625 -4.671875 C 9.0625 -5.660156 8.753906 -6.421875 8.140625 -6.953125 C 7.523438 -7.484375 6.5625 -7.75 5.25 -7.75 C 4.84375 -7.75 4.382812 -7.710938 3.875 -7.640625 C 3.363281 -7.578125 2.953125 -7.507812 2.640625 -7.4375 L 1.703125 -8.03125 L 2.28125 -15.21875 L 9.90625 -15.21875 L 9.90625 -13.515625 L 3.875 -13.515625 L 3.515625 -9.09375 C 3.753906 -9.144531 4.078125 -9.195312 4.484375 -9.25 C 4.898438 -9.300781 5.359375 -9.328125 5.859375 -9.328125 Z M 5.859375 -9.328125 "/></g></g></g><g fill="#000000" fill-opacity="1"><g transform="translate(97.473639, 60.00141)"><g><path d="M 2.90625 0 L 9.140625 -13.515625 L 0.9375 -13.515625 L 0.9375 -15.21875 L 11.140625 -15.21875 L 11.140625 -13.765625 L 4.96875 0 Z M 2.90625 0 "/></g></g></g><g fill="#000000" fill-opacity="1"><g transform="translate(134.80475, 60.00141)"><g><path d="M 2.90625 0 L 9.140625 -13.515625 L 0.9375 -13.515625 L 0.9375 -15.21875 L 11.140625 -15.21875 L 11.140625 -13.765625 L 4.96875 0 Z M 2.90625 0 "/></g></g></g><g fill="#000000" fill-opacity="1"><g transform="translate(190.993641, 60.00141)"><g><path d="M 2.90625 0 L 9.140625 -13.515625 L 0.9375 -13.515625 L 0.9375 -15.21875 L 11.140625 -15.21875 L 11.140625 -13.765625 L 4.96875 0 Z M 2.90625 0 "/></g></g></g><g fill="#000000" fill-opacity="1"><g transform="translate(240.89332, 60.00141)"><g><path d="M 2.90625 0 L 9.140625 -13.515625 L 0.9375 -13.515625 L 0.9375 -15.21875 L 11.140625 -15.21875 L 11.140625 -13.765625 L 4.96875 0 Z M 2.90625 0 "/></g></g></g></svg>