<svg xmlns="http://www.w3.org/2000/svg" xmlns:xlink="http://www.w3.org/1999/xlink" width="545" zoomAndPan="magnify" viewBox="0 0 408.75 76.499998" height="102" preserveAspectRatio="xMidYMid meet" version="1.0"><defs><g/><clipPath id="ac467129a4"><path d="M 334.234375 0 L 382 0 L 382 48 L 334.234375 48 Z M 334.234375 0 " clip-rule="nonzero"/></clipPath><clipPath id="40818a1d37"><path d="M 334.234375 13 L 371 13 L 371 45 L 334.234375 45 Z M 334.234375 13 " clip-rule="nonzero"/></clipPath><clipPath id="b0807fabc2"><path d="M 334.234375 3 L 382 3 L 382 56 L 334.234375 56 Z M 334.234375 3 " clip-rule="nonzero"/></clipPath><clipPath id="de1ba2f38a"><path d="M 334.234375 25 L 382 25 L 382 73.023438 L 334.234375 73.023438 Z M 334.234375 25 " clip-rule="nonzero"/></clipPath><clipPath id="6d5bb7ce24"><path d="M 344 25 L 398 25 L 398 73.023438 L 344 73.023438 Z M 344 25 " clip-rule="nonzero"/></clipPath><clipPath id="b273171207"><path d="M 360 25 L 407.253906 25 L 407.253906 73.023438 L 360 73.023438 Z M 360 25 " clip-rule="nonzero"/></clipPath><clipPath id="28ca1ab753"><path d="M 360 3 L 407.253906 3 L 407.253906 56 L 360 56 Z M 360 3 " clip-rule="nonzero"/></clipPath><clipPath id="290d603905"><path d="M 360 0 L 407.253906 0 L 407.253906 48 L 360 48 Z M 360 0 " clip-rule="nonzero"/></clipPath></defs><path fill="#ffffff" d="M 370.800781 0.371094 L 370.800781 36.566406 L 342.480469 13.984375 C 349.101562 5.6875 359.300781 0.371094 370.742188 0.371094 Z M 370.800781 0.371094 " fill-opacity="1" fill-rule="nonzero"/><g clip-path="url(#ac467129a4)"><path stroke-linecap="butt" transform="matrix(0.187238, 0, 0, 0.187238, 323.991011, -10.241905)" fill="none" stroke-linejoin="miter" d="M 250.001783 56.681941 L 250.001783 249.993993 L 98.748558 129.387801 C 134.110519 85.075822 188.582542 56.681941 249.688845 56.681941 Z M 250.001783 56.681941 " stroke="#000000" stroke-width="4" stroke-opacity="1" stroke-miterlimit="10"/></g><g clip-path="url(#40818a1d37)"><path fill="#ffffff" d="M 370.800781 36.566406 L 335.515625 44.617188 C 334.921875 42.011719 334.605469 39.296875 334.605469 36.507812 C 334.605469 27.988281 337.550781 20.160156 342.480469 13.984375 Z M 370.800781 36.566406 " fill-opacity="1" fill-rule="nonzero"/></g><g clip-path="url(#b0807fabc2)"><path stroke-linecap="butt" transform="matrix(0.187238, 0, 0, 0.187238, 323.991011, -10.241905)" fill="none" stroke-linejoin="miter" d="M 250.001783 249.993993 L 61.550696 292.991634 C 58.379594 279.076337 56.689731 264.57689 56.689731 249.681055 C 56.689731 204.179913 72.420066 162.371435 98.748558 129.387801 Z M 250.001783 249.993993 " stroke="#000000" stroke-width="4" stroke-opacity="1" stroke-miterlimit="10"/></g><path fill="#ffffff" d="M 370.800781 36.566406 L 355.128906 69.109375 C 345.34375 64.414062 338 55.441406 335.515625 44.617188 Z M 370.800781 36.566406 " fill-opacity="1" fill-rule="nonzero"/><g clip-path="url(#de1ba2f38a)"><path stroke-linecap="butt" transform="matrix(0.187238, 0, 0, 0.187238, 323.991011, -10.241905)" fill="none" stroke-linejoin="miter" d="M 250.001783 249.993993 L 166.301378 423.799595 C 114.040781 398.722853 74.819255 350.801659 61.550696 292.991634 Z M 250.001783 249.993993 " stroke="#000000" stroke-width="4" stroke-opacity="1" stroke-miterlimit="10"/></g><path fill="#ffffff" d="M 386.449219 69.0625 C 381.699219 71.359375 376.371094 72.644531 370.742188 72.644531 C 365.109375 72.644531 359.855469 71.375 355.128906 69.109375 L 370.800781 36.566406 Z M 386.449219 69.0625 " fill-opacity="1" fill-rule="nonzero"/><g clip-path="url(#6d5bb7ce24)"><path stroke-linecap="butt" transform="matrix(0.187238, 0, 0, 0.187238, 323.991011, -10.241905)" fill="none" stroke-linejoin="miter" d="M 333.577013 423.549245 C 308.208196 435.816403 279.751727 442.68017 249.688845 442.68017 C 219.6051 442.68017 191.545019 435.899853 166.301378 423.799595 L 250.001783 249.993993 Z M 333.577013 423.549245 " stroke="#000000" stroke-width="4" stroke-opacity="1" stroke-miterlimit="10"/></g><path fill="#ffffff" d="M 405.96875 44.59375 C 403.5 55.394531 396.191406 64.351562 386.449219 69.0625 L 370.800781 36.566406 Z M 405.96875 44.59375 " fill-opacity="1" fill-rule="nonzero"/><g clip-path="url(#b273171207)"><path stroke-linecap="butt" transform="matrix(0.187238, 0, 0, 0.187238, 323.991011, -10.241905)" fill="none" stroke-linejoin="miter" d="M 437.826994 292.866459 C 424.641885 350.551309 385.608122 398.389053 333.577013 423.549245 L 250.001783 249.993993 Z M 437.826994 292.866459 " stroke="#000000" stroke-width="4" stroke-opacity="1" stroke-miterlimit="10"/></g><path fill="#ffffff" d="M 406.878906 36.507812 C 406.878906 39.289062 406.5625 41.992188 405.96875 44.59375 L 370.800781 36.566406 L 399.046875 14.039062 C 403.949219 20.207031 406.878906 28.015625 406.878906 36.507812 Z M 406.878906 36.507812 " fill-opacity="1" fill-rule="nonzero"/><g clip-path="url(#28ca1ab753)"><path stroke-linecap="butt" transform="matrix(0.187238, 0, 0, 0.187238, 323.991011, -10.241905)" fill="none" stroke-linejoin="miter" d="M 442.68796 249.681055 C 442.68796 264.535165 440.998096 278.972025 437.826994 292.866459 L 250.001783 249.993993 L 400.85862 129.679876 C 427.041074 162.621785 442.68796 204.32595 442.68796 249.681055 Z M 442.68796 249.681055 " stroke="#000000" stroke-width="4" stroke-opacity="1" stroke-miterlimit="10"/></g><path fill="#f33969" d="M 399.046875 14.039062 L 370.800781 36.566406 L 370.800781 0.371094 C 382.242188 0.390625 392.441406 5.726562 399.046875 14.039062 Z M 399.046875 14.039062 " fill-opacity="1" fill-rule="nonzero"/><g clip-path="url(#290d603905)"><path stroke-linecap="butt" transform="matrix(0.187238, 0, 0, 0.187238, 323.991011, -10.241905)" fill="none" stroke-linejoin="miter" d="M 400.85862 129.679876 L 250.001783 249.993993 L 250.001783 56.681941 C 311.108086 56.786253 365.580109 85.284447 400.85862 129.679876 Z M 400.85862 129.679876 " stroke="#000000" stroke-width="4" stroke-opacity="1" stroke-miterlimit="10"/></g><path fill="#4e2804" d="M 312.105469 36.570312 L 305.695312 32.296875 C 305.359375 32.074219 305.269531 31.621094 305.492188 31.289062 C 305.714844 30.953125 306.167969 30.863281 306.503906 31.085938 L 315.824219 37.300781 L 306.503906 43.515625 C 306.167969 43.738281 305.714844 43.644531 305.492188 43.3125 C 305.269531 42.976562 305.363281 42.523438 305.695312 42.300781 C 305.695312 42.300781 310.023438 39.414062 312.105469 38.027344 L 251.78125 38.027344 C 251.378906 38.027344 251.050781 37.703125 251.050781 37.300781 C 251.050781 36.898438 251.378906 36.570312 251.78125 36.570312 Z M 312.105469 36.570312 " fill-opacity="1" fill-rule="evenodd"/><g fill="#000000" fill-opacity="1"><g transform="translate(10.202603, 35.534146)"><g><path d="M 8.140625 -13.03125 C 6.585938 -13.03125 5.367188 -12.507812 4.484375 -11.46875 C 3.597656 -10.4375 3.15625 -9.019531 3.15625 -7.21875 C 3.15625 -5.425781 3.566406 -4.003906 4.390625 -2.953125 C 5.222656 -1.910156 6.46875 -1.390625 8.125 -1.390625 C 8.738281 -1.390625 9.328125 -1.441406 9.890625 -1.546875 C 10.460938 -1.660156 11.023438 -1.796875 11.578125 -1.953125 L 11.578125 -0.390625 C 11.035156 -0.179688 10.476562 -0.03125 9.90625 0.0625 C 9.332031 0.15625 8.648438 0.203125 7.859375 0.203125 C 6.390625 0.203125 5.160156 -0.0976562 4.171875 -0.703125 C 3.191406 -1.304688 2.457031 -2.164062 1.96875 -3.28125 C 1.476562 -4.40625 1.234375 -5.722656 1.234375 -7.234375 C 1.234375 -8.691406 1.5 -9.972656 2.03125 -11.078125 C 2.5625 -12.191406 3.34375 -13.0625 4.375 -13.6875 C 5.414062 -14.3125 6.675781 -14.625 8.15625 -14.625 C 9.675781 -14.625 11.003906 -14.34375 12.140625 -13.78125 L 11.421875 -12.25 C 10.972656 -12.445312 10.472656 -12.625 9.921875 -12.78125 C 9.378906 -12.945312 8.785156 -13.03125 8.140625 -13.03125 Z M 8.140625 -13.03125 "/></g></g></g><g fill="#000000" fill-opacity="1"><g transform="translate(22.969011, 35.534146)"><g><path d="M 11.125 -5.4375 C 11.125 -3.644531 10.671875 -2.253906 9.765625 -1.265625 C 8.859375 -0.285156 7.628906 0.203125 6.078125 0.203125 C 5.117188 0.203125 4.265625 -0.015625 3.515625 -0.453125 C 2.773438 -0.890625 2.1875 -1.53125 1.75 -2.375 C 1.320312 -3.21875 1.109375 -4.238281 1.109375 -5.4375 C 1.109375 -7.226562 1.554688 -8.609375 2.453125 -9.578125 C 3.347656 -10.546875 4.578125 -11.03125 6.140625 -11.03125 C 7.109375 -11.03125 7.96875 -10.8125 8.71875 -10.375 C 9.476562 -9.9375 10.066406 -9.300781 10.484375 -8.46875 C 10.910156 -7.644531 11.125 -6.632812 11.125 -5.4375 Z M 2.953125 -5.4375 C 2.953125 -4.15625 3.203125 -3.140625 3.703125 -2.390625 C 4.210938 -1.640625 5.019531 -1.265625 6.125 -1.265625 C 7.21875 -1.265625 8.019531 -1.640625 8.53125 -2.390625 C 9.039062 -3.140625 9.296875 -4.15625 9.296875 -5.4375 C 9.296875 -6.71875 9.039062 -7.71875 8.53125 -8.4375 C 8.019531 -9.164062 7.207031 -9.53125 6.09375 -9.53125 C 4.988281 -9.53125 4.1875 -9.164062 3.6875 -8.4375 C 3.195312 -7.71875 2.953125 -6.71875 2.953125 -5.4375 Z M 2.953125 -5.4375 "/></g></g></g><g fill="#000000" fill-opacity="1"><g transform="translate(35.190023, 35.534146)"><g><path d="M 6.921875 -11.03125 C 8.222656 -11.03125 9.203125 -10.710938 9.859375 -10.078125 C 10.515625 -9.441406 10.84375 -8.429688 10.84375 -7.046875 L 10.84375 0 L 9.09375 0 L 9.09375 -6.921875 C 9.09375 -8.660156 8.285156 -9.53125 6.671875 -9.53125 C 5.472656 -9.53125 4.644531 -9.191406 4.1875 -8.515625 C 3.726562 -7.847656 3.5 -6.878906 3.5 -5.609375 L 3.5 0 L 1.71875 0 L 1.71875 -10.828125 L 3.15625 -10.828125 L 3.421875 -9.359375 L 3.515625 -9.359375 C 3.867188 -9.921875 4.351562 -10.335938 4.96875 -10.609375 C 5.59375 -10.890625 6.242188 -11.03125 6.921875 -11.03125 Z M 6.921875 -11.03125 "/></g></g></g><g fill="#000000" fill-opacity="1"><g transform="translate(47.67363, 35.534146)"><g><path d="M 5.328125 -1.25 C 5.597656 -1.25 5.875 -1.269531 6.15625 -1.3125 C 6.445312 -1.351562 6.675781 -1.40625 6.84375 -1.46875 L 6.84375 -0.125 C 6.65625 -0.03125 6.382812 0.046875 6.03125 0.109375 C 5.6875 0.171875 5.351562 0.203125 5.03125 0.203125 C 4.46875 0.203125 3.945312 0.101562 3.46875 -0.09375 C 2.988281 -0.289062 2.597656 -0.628906 2.296875 -1.109375 C 2.003906 -1.597656 1.859375 -2.28125 1.859375 -3.15625 L 1.859375 -9.453125 L 0.328125 -9.453125 L 0.328125 -10.296875 L 1.875 -11.015625 L 2.59375 -13.3125 L 3.640625 -13.3125 L 3.640625 -10.828125 L 6.765625 -10.828125 L 6.765625 -9.453125 L 3.640625 -9.453125 L 3.640625 -3.1875 C 3.640625 -2.53125 3.796875 -2.039062 4.109375 -1.71875 C 4.429688 -1.40625 4.835938 -1.25 5.328125 -1.25 Z M 5.328125 -1.25 "/></g></g></g><g fill="#000000" fill-opacity="1"><g transform="translate(54.965831, 35.534146)"><g><path d="M 11.125 -5.4375 C 11.125 -3.644531 10.671875 -2.253906 9.765625 -1.265625 C 8.859375 -0.285156 7.628906 0.203125 6.078125 0.203125 C 5.117188 0.203125 4.265625 -0.015625 3.515625 -0.453125 C 2.773438 -0.890625 2.1875 -1.53125 1.75 -2.375 C 1.320312 -3.21875 1.109375 -4.238281 1.109375 -5.4375 C 1.109375 -7.226562 1.554688 -8.609375 2.453125 -9.578125 C 3.347656 -10.546875 4.578125 -11.03125 6.140625 -11.03125 C 7.109375 -11.03125 7.96875 -10.8125 8.71875 -10.375 C 9.476562 -9.9375 10.066406 -9.300781 10.484375 -8.46875 C 10.910156 -7.644531 11.125 -6.632812 11.125 -5.4375 Z M 2.953125 -5.4375 C 2.953125 -4.15625 3.203125 -3.140625 3.703125 -2.390625 C 4.210938 -1.640625 5.019531 -1.265625 6.125 -1.265625 C 7.21875 -1.265625 8.019531 -1.640625 8.53125 -2.390625 C 9.039062 -3.140625 9.296875 -4.15625 9.296875 -5.4375 C 9.296875 -6.71875 9.039062 -7.71875 8.53125 -8.4375 C 8.019531 -9.164062 7.207031 -9.53125 6.09375 -9.53125 C 4.988281 -9.53125 4.1875 -9.164062 3.6875 -8.4375 C 3.195312 -7.71875 2.953125 -6.71875 2.953125 -5.4375 Z M 2.953125 -5.4375 "/></g></g></g><g fill="#000000" fill-opacity="1"><g transform="translate(67.186842, 35.534146)"><g><path d="M 3.5 -15.359375 L 3.5 -10.84375 C 3.5 -10.3125 3.460938 -9.804688 3.390625 -9.328125 L 3.515625 -9.328125 C 3.867188 -9.878906 4.34375 -10.296875 4.9375 -10.578125 C 5.539062 -10.867188 6.191406 -11.015625 6.890625 -11.015625 C 8.191406 -11.015625 9.175781 -10.695312 9.84375 -10.0625 C 10.507812 -9.4375 10.84375 -8.429688 10.84375 -7.046875 L 10.84375 0 L 9.09375 0 L 9.09375 -6.921875 C 9.09375 -8.660156 8.285156 -9.53125 6.671875 -9.53125 C 5.453125 -9.53125 4.617188 -9.191406 4.171875 -8.515625 C 3.722656 -7.835938 3.5 -6.863281 3.5 -5.59375 L 3.5 0 L 1.71875 0 L 1.71875 -15.359375 Z M 3.5 -15.359375 "/></g></g></g><g fill="#000000" fill-opacity="1"><g transform="translate(79.67045, 35.534146)"><g><path d="M 4.671875 -9.109375 C 4.671875 -8.785156 4.566406 -8.5 4.359375 -8.25 C 4.148438 -8 3.890625 -7.875 3.578125 -7.875 C 3.253906 -7.875 2.988281 -7.992188 2.78125 -8.234375 C 2.570312 -8.484375 2.46875 -8.773438 2.46875 -9.109375 C 2.46875 -9.429688 2.570312 -9.703125 2.78125 -9.921875 C 2.988281 -10.148438 3.253906 -10.265625 3.578125 -10.265625 C 3.890625 -10.265625 4.148438 -10.148438 4.359375 -9.921875 C 4.566406 -9.691406 4.671875 -9.421875 4.671875 -9.109375 Z M 4.671875 -1.4375 C 4.671875 -1.132812 4.5625 -0.863281 4.34375 -0.625 C 4.125 -0.382812 3.867188 -0.265625 3.578125 -0.265625 C 3.242188 -0.265625 2.972656 -0.378906 2.765625 -0.609375 C 2.566406 -0.835938 2.46875 -1.113281 2.46875 -1.4375 C 2.46875 -1.769531 2.570312 -2.046875 2.78125 -2.265625 C 2.988281 -2.492188 3.253906 -2.609375 3.578125 -2.609375 C 3.890625 -2.609375 4.148438 -2.492188 4.359375 -2.265625 C 4.566406 -2.035156 4.671875 -1.757812 4.671875 -1.4375 Z M 4.671875 -1.4375 "/></g></g></g><g fill="#000000" fill-opacity="1"><g transform="translate(87.044115, 35.534146)"><g/></g></g><g fill="#000000" fill-opacity="1"><g transform="translate(93.003119, 35.534146)"><g/></g></g><path fill="#000000" d="M 98.964844 37.023438 L 110.527344 37.023438 L 110.527344 38.515625 L 98.964844 38.515625 Z M 98.964844 37.023438 " fill-opacity="1" fill-rule="nonzero"/><g fill="#000000" fill-opacity="1"><g transform="translate(98.966192, 35.534146)"><g><path d="M 9.953125 -11.046875 C 9.953125 -10.078125 9.679688 -9.304688 9.140625 -8.734375 C 8.597656 -8.160156 7.875 -7.78125 6.96875 -7.59375 L 6.96875 -7.515625 C 8.113281 -7.378906 8.972656 -7.015625 9.546875 -6.421875 C 10.117188 -5.828125 10.40625 -5.050781 10.40625 -4.09375 C 10.40625 -3.25 10.207031 -2.503906 9.8125 -1.859375 C 9.425781 -1.210938 8.820312 -0.707031 8 -0.34375 C 7.1875 0.0195312 6.144531 0.203125 4.875 0.203125 C 4.113281 0.203125 3.410156 0.144531 2.765625 0.03125 C 2.117188 -0.0820312 1.5 -0.285156 0.90625 -0.578125 L 0.90625 -2.25 C 1.507812 -1.9375 2.160156 -1.695312 2.859375 -1.53125 C 3.566406 -1.375 4.242188 -1.296875 4.890625 -1.296875 C 6.179688 -1.296875 7.113281 -1.546875 7.6875 -2.046875 C 8.257812 -2.554688 8.546875 -3.253906 8.546875 -4.140625 C 8.546875 -5.046875 8.191406 -5.695312 7.484375 -6.09375 C 6.773438 -6.488281 5.78125 -6.6875 4.5 -6.6875 L 3.109375 -6.6875 L 3.109375 -8.203125 L 4.53125 -8.203125 C 5.707031 -8.203125 6.601562 -8.453125 7.21875 -8.953125 C 7.832031 -9.453125 8.140625 -10.113281 8.140625 -10.9375 C 8.140625 -11.632812 7.90625 -12.171875 7.4375 -12.546875 C 6.96875 -12.929688 6.328125 -13.125 5.515625 -13.125 C 4.734375 -13.125 4.066406 -13.007812 3.515625 -12.78125 C 2.960938 -12.550781 2.414062 -12.265625 1.875 -11.921875 L 0.984375 -13.125 C 1.492188 -13.53125 2.128906 -13.878906 2.890625 -14.171875 C 3.660156 -14.472656 4.53125 -14.625 5.5 -14.625 C 7.007812 -14.625 8.128906 -14.285156 8.859375 -13.609375 C 9.585938 -12.941406 9.953125 -12.085938 9.953125 -11.046875 Z M 9.953125 -11.046875 "/></g></g></g><g fill="#000000" fill-opacity="1"><g transform="translate(110.527347, 35.534146)"><g/></g></g><g fill="#000000" fill-opacity="1"><g transform="translate(116.48635, 35.534146)"><g><path d="M 7.640625 -5.09375 C 7.640625 -4.632812 7.34375 -4.40625 6.75 -4.40625 L 2.140625 -4.40625 C 1.941406 -4.40625 1.773438 -4.46875 1.640625 -4.59375 C 1.515625 -4.71875 1.453125 -4.882812 1.453125 -5.09375 C 1.453125 -5.28125 1.515625 -5.4375 1.640625 -5.5625 C 1.773438 -5.695312 1.941406 -5.765625 2.140625 -5.765625 L 6.84375 -5.765625 C 7.050781 -5.765625 7.234375 -5.695312 7.390625 -5.5625 C 7.554688 -5.425781 7.640625 -5.269531 7.640625 -5.09375 Z M 7.640625 -5.09375 "/></g></g></g><g fill="#000000" fill-opacity="1"><g transform="translate(125.374357, 35.534146)"><g/></g></g><path fill="#000000" d="M 131.34375 37.023438 L 142.90625 37.023438 L 142.90625 38.515625 L 131.34375 38.515625 Z M 131.34375 37.023438 " fill-opacity="1" fill-rule="nonzero"/><g fill="#000000" fill-opacity="1"><g transform="translate(131.344411, 35.534146)"><g><path d="M 10.5 0 L 0.96875 0 L 0.96875 -1.46875 L 4.75 -5.296875 C 5.457031 -6.023438 6.0625 -6.671875 6.5625 -7.234375 C 7.070312 -7.796875 7.453125 -8.347656 7.703125 -8.890625 C 7.960938 -9.429688 8.09375 -10.03125 8.09375 -10.6875 C 8.09375 -11.476562 7.859375 -12.078125 7.390625 -12.484375 C 6.921875 -12.898438 6.3125 -13.109375 5.5625 -13.109375 C 4.84375 -13.109375 4.21875 -12.988281 3.6875 -12.75 C 3.164062 -12.507812 2.628906 -12.171875 2.078125 -11.734375 L 1.125 -12.9375 C 1.695312 -13.40625 2.347656 -13.800781 3.078125 -14.125 C 3.816406 -14.457031 4.644531 -14.625 5.5625 -14.625 C 6.90625 -14.625 7.96875 -14.28125 8.75 -13.59375 C 9.53125 -12.90625 9.921875 -11.96875 9.921875 -10.78125 C 9.921875 -10.03125 9.765625 -9.320312 9.453125 -8.65625 C 9.140625 -8 8.707031 -7.347656 8.15625 -6.703125 C 7.601562 -6.054688 6.957031 -5.378906 6.21875 -4.671875 L 3.21875 -1.703125 L 3.21875 -1.609375 L 10.5 -1.609375 Z M 10.5 0 "/></g></g></g><g fill="#000000" fill-opacity="1"><g transform="translate(142.905566, 35.534146)"><g/></g></g><g fill="#000000" fill-opacity="1"><g transform="translate(148.864569, 35.534146)"><g><path d="M 12.4375 -6.703125 L 1.171875 -6.703125 L 1.171875 -7.53125 L 12.4375 -7.53125 Z M 12.4375 -3.78125 L 1.171875 -3.78125 L 1.171875 -4.609375 L 12.4375 -4.609375 Z M 12.4375 -3.78125 "/></g></g></g><g fill="#000000" fill-opacity="1"><g transform="translate(162.459175, 35.534146)"><g/></g></g><path fill="#000000" d="M 168.425781 37.023438 L 200.433594 37.023438 L 200.433594 38.515625 L 168.425781 38.515625 Z M 168.425781 37.023438 " fill-opacity="1" fill-rule="nonzero"/><g fill="#000000" fill-opacity="1"><g transform="translate(168.426262, 35.534146)"><g><path d="M 9.953125 -11.046875 C 9.953125 -10.078125 9.679688 -9.304688 9.140625 -8.734375 C 8.597656 -8.160156 7.875 -7.78125 6.96875 -7.59375 L 6.96875 -7.515625 C 8.113281 -7.378906 8.972656 -7.015625 9.546875 -6.421875 C 10.117188 -5.828125 10.40625 -5.050781 10.40625 -4.09375 C 10.40625 -3.25 10.207031 -2.503906 9.8125 -1.859375 C 9.425781 -1.210938 8.820312 -0.707031 8 -0.34375 C 7.1875 0.0195312 6.144531 0.203125 4.875 0.203125 C 4.113281 0.203125 3.410156 0.144531 2.765625 0.03125 C 2.117188 -0.0820312 1.5 -0.285156 0.90625 -0.578125 L 0.90625 -2.25 C 1.507812 -1.9375 2.160156 -1.695312 2.859375 -1.53125 C 3.566406 -1.375 4.242188 -1.296875 4.890625 -1.296875 C 6.179688 -1.296875 7.113281 -1.546875 7.6875 -2.046875 C 8.257812 -2.554688 8.546875 -3.253906 8.546875 -4.140625 C 8.546875 -5.046875 8.191406 -5.695312 7.484375 -6.09375 C 6.773438 -6.488281 5.78125 -6.6875 4.5 -6.6875 L 3.109375 -6.6875 L 3.109375 -8.203125 L 4.53125 -8.203125 C 5.707031 -8.203125 6.601562 -8.453125 7.21875 -8.953125 C 7.832031 -9.453125 8.140625 -10.113281 8.140625 -10.9375 C 8.140625 -11.632812 7.90625 -12.171875 7.4375 -12.546875 C 6.96875 -12.929688 6.328125 -13.125 5.515625 -13.125 C 4.734375 -13.125 4.066406 -13.007812 3.515625 -12.78125 C 2.960938 -12.550781 2.414062 -12.265625 1.875 -11.921875 L 0.984375 -13.125 C 1.492188 -13.53125 2.128906 -13.878906 2.890625 -14.171875 C 3.660156 -14.472656 4.53125 -14.625 5.5 -14.625 C 7.007812 -14.625 8.128906 -14.285156 8.859375 -13.609375 C 9.585938 -12.941406 9.953125 -12.085938 9.953125 -11.046875 Z M 9.953125 -11.046875 "/></g></g></g><g fill="#000000" fill-opacity="1"><g transform="translate(179.980663, 35.534146)"><g><path d="M 7.640625 -5.09375 C 7.640625 -4.632812 7.34375 -4.40625 6.75 -4.40625 L 2.140625 -4.40625 C 1.941406 -4.40625 1.773438 -4.46875 1.640625 -4.59375 C 1.515625 -4.71875 1.453125 -4.882812 1.453125 -5.09375 C 1.453125 -5.28125 1.515625 -5.4375 1.640625 -5.5625 C 1.773438 -5.695312 1.941406 -5.765625 2.140625 -5.765625 L 6.84375 -5.765625 C 7.050781 -5.765625 7.234375 -5.695312 7.390625 -5.5625 C 7.554688 -5.425781 7.640625 -5.269531 7.640625 -5.09375 Z M 7.640625 -5.09375 "/></g></g></g><g fill="#000000" fill-opacity="1"><g transform="translate(188.868669, 35.534146)"><g><path d="M 10.5 0 L 0.96875 0 L 0.96875 -1.46875 L 4.75 -5.296875 C 5.457031 -6.023438 6.0625 -6.671875 6.5625 -7.234375 C 7.070312 -7.796875 7.453125 -8.347656 7.703125 -8.890625 C 7.960938 -9.429688 8.09375 -10.03125 8.09375 -10.6875 C 8.09375 -11.476562 7.859375 -12.078125 7.390625 -12.484375 C 6.921875 -12.898438 6.3125 -13.109375 5.5625 -13.109375 C 4.84375 -13.109375 4.21875 -12.988281 3.6875 -12.75 C 3.164062 -12.507812 2.628906 -12.171875 2.078125 -11.734375 L 1.125 -12.9375 C 1.695312 -13.40625 2.347656 -13.800781 3.078125 -14.125 C 3.816406 -14.457031 4.644531 -14.625 5.5625 -14.625 C 6.90625 -14.625 7.96875 -14.28125 8.75 -13.59375 C 9.53125 -12.90625 9.921875 -11.96875 9.921875 -10.78125 C 9.921875 -10.03125 9.765625 -9.320312 9.453125 -8.65625 C 9.140625 -8 8.707031 -7.347656 8.15625 -6.703125 C 7.601562 -6.054688 6.957031 -5.378906 6.21875 -4.671875 L 3.21875 -1.703125 L 3.21875 -1.609375 L 10.5 -1.609375 Z M 10.5 0 "/></g></g></g><g fill="#000000" fill-opacity="1"><g transform="translate(200.43192, 35.534146)"><g/></g></g><g fill="#000000" fill-opacity="1"><g transform="translate(206.390924, 35.534146)"><g><path d="M 12.4375 -6.703125 L 1.171875 -6.703125 L 1.171875 -7.53125 L 12.4375 -7.53125 Z M 12.4375 -3.78125 L 1.171875 -3.78125 L 1.171875 -4.609375 L 12.4375 -4.609375 Z M 12.4375 -3.78125 "/></g></g></g><g fill="#000000" fill-opacity="1"><g transform="translate(219.985529, 35.534146)"><g/></g></g><path fill="#000000" d="M 225.953125 37.023438 L 237.515625 37.023438 L 237.515625 38.515625 L 225.953125 38.515625 Z M 225.953125 37.023438 " fill-opacity="1" fill-rule="nonzero"/><g fill="#000000" fill-opacity="1"><g transform="translate(225.952616, 35.534146)"><g><path d="M 7.171875 0 L 5.4375 0 L 5.4375 -10.078125 C 5.4375 -10.660156 5.441406 -11.125 5.453125 -11.46875 C 5.460938 -11.820312 5.484375 -12.1875 5.515625 -12.5625 C 5.296875 -12.351562 5.09375 -12.171875 4.90625 -12.015625 C 4.726562 -11.867188 4.515625 -11.679688 4.265625 -11.453125 L 2.734375 -10.203125 L 1.796875 -11.390625 L 5.703125 -14.421875 L 7.171875 -14.421875 Z M 7.171875 0 "/></g></g></g><g fill="#000000" fill-opacity="1"><g transform="translate(10.202603, 60.12343)"><g/></g></g><g fill="#000000" fill-opacity="1"><g transform="translate(16.161606, 60.12343)"><g/></g></g><g fill="#000000" fill-opacity="1"><g transform="translate(22.12061, 60.12343)"><g/></g></g><g fill="#000000" fill-opacity="1"><g transform="translate(28.079613, 60.12343)"><g/></g></g><g fill="#000000" fill-opacity="1"><g transform="translate(34.038616, 60.12343)"><g/></g></g><g fill="#000000" fill-opacity="1"><g transform="translate(39.99762, 60.12343)"><g/></g></g><g fill="#000000" fill-opacity="1"><g transform="translate(45.956623, 60.12343)"><g/></g></g><g fill="#000000" fill-opacity="1"><g transform="translate(51.915626, 60.12343)"><g/></g></g><g fill="#000000" fill-opacity="1"><g transform="translate(57.87463, 60.12343)"><g/></g></g><g fill="#000000" fill-opacity="1"><g transform="translate(63.833633, 60.12343)"><g/></g></g><g fill="#000000" fill-opacity="1"><g transform="translate(69.792637, 60.12343)"><g/></g></g><g fill="#000000" fill-opacity="1"><g transform="translate(75.75164, 60.12343)"><g/></g></g><g fill="#000000" fill-opacity="1"><g transform="translate(81.710643, 60.12343)"><g/></g></g><g fill="#000000" fill-opacity="1"><g transform="translate(87.669647, 60.12343)"><g/></g></g><g fill="#000000" fill-opacity="1"><g transform="translate(93.62865, 60.12343)"><g/></g></g><g fill="#000000" fill-opacity="1"><g transform="translate(99.594896, 60.12343)"><g><path d="M 2.75 0 L 8.671875 -12.8125 L 0.890625 -12.8125 L 0.890625 -14.421875 L 10.5625 -14.421875 L 10.5625 -13.046875 L 4.703125 0 Z M 2.75 0 "/></g></g></g><g fill="#000000" fill-opacity="1"><g transform="translate(111.15605, 60.12343)"><g/></g></g><g fill="#000000" fill-opacity="1"><g transform="translate(117.115054, 60.12343)"><g/></g></g><g fill="#000000" fill-opacity="1"><g transform="translate(123.074057, 60.12343)"><g/></g></g><g fill="#000000" fill-opacity="1"><g transform="translate(129.039166, 60.12343)"><g><path d="M 2.75 0 L 8.671875 -12.8125 L 0.890625 -12.8125 L 0.890625 -14.421875 L 10.5625 -14.421875 L 10.5625 -13.046875 L 4.703125 0 Z M 2.75 0 "/></g></g></g><g fill="#000000" fill-opacity="1"><g transform="translate(140.600321, 60.12343)"><g/></g></g><g fill="#000000" fill-opacity="1"><g transform="translate(146.559324, 60.12343)"><g/></g></g><g fill="#000000" fill-opacity="1"><g transform="translate(152.518327, 60.12343)"><g/></g></g><g fill="#000000" fill-opacity="1"><g transform="translate(158.477331, 60.12343)"><g/></g></g><g fill="#000000" fill-opacity="1"><g transform="translate(164.436334, 60.12343)"><g/></g></g><g fill="#000000" fill-opacity="1"><g transform="translate(170.395338, 60.12343)"><g/></g></g><g fill="#000000" fill-opacity="1"><g transform="translate(176.354341, 60.12343)"><g/></g></g><g fill="#000000" fill-opacity="1"><g transform="translate(182.315952, 60.12343)"><g><path d="M 2.75 0 L 8.671875 -12.8125 L 0.890625 -12.8125 L 0.890625 -14.421875 L 10.5625 -14.421875 L 10.5625 -13.046875 L 4.703125 0 Z M 2.75 0 "/></g></g></g><g fill="#000000" fill-opacity="1"><g transform="translate(193.877103, 60.12343)"><g/></g></g><g fill="#000000" fill-opacity="1"><g transform="translate(199.836106, 60.12343)"><g/></g></g><g fill="#000000" fill-opacity="1"><g transform="translate(205.795109, 60.12343)"><g/></g></g><g fill="#000000" fill-opacity="1"><g transform="translate(211.754113, 60.12343)"><g/></g></g><g fill="#000000" fill-opacity="1"><g transform="translate(217.713116, 60.12343)"><g/></g></g><g fill="#000000" fill-opacity="1"><g transform="translate(223.682295, 60.12343)"><g><path d="M 2.75 0 L 8.671875 -12.8125 L 0.890625 -12.8125 L 0.890625 -14.421875 L 10.5625 -14.421875 L 10.5625 -13.046875 L 4.703125 0 Z M 2.75 0 "/></g></g></g></svg>